<?xml version="1.0" encoding="utf-8"?>
<!-- Generator: Adobe Illustrator 25.0.1, SVG Export Plug-In . SVG Version: 6.00 Build 0)  -->
<svg version="1.0" id="Layer_1" xmlns="http://www.w3.org/2000/svg" xmlns:xlink="http://www.w3.org/1999/xlink" x="0px" y="0px"
	 viewBox="0 0 500 350" enable-background="new 0 0 500 350" xml:space="preserve">
<g>
	<path fill="#002F86" d="M493.3,172.6c-1.9,3.7-3.7,7.4-7.4,9.8c-7.3,4.7-16.3,3.5-22.3-3.2c-13-14.6-26-29.4-39-44
		c-0.5-0.5-1-1-1.7-1.8c-4.1,4.6-8.2,9.2-12.2,13.7c-9.6,10.8-19,21.7-28.7,32.4c-6.3,7.1-16.7,7.6-23.8,1.5
		c-7.1-6.1-8.1-16.4-1.8-23.7c12.4-14.4,25.1-28.5,37.7-42.7c1.9-2.2,5.2-4.4,5.3-6.7c0-2.2-3.2-4.6-5.1-6.8
		c-12.4-14.1-25-28.1-37.3-42.3c-8.8-10-4.4-24.9,8.2-28c6.4-1.6,12.2,0,16.6,5c12.8,14.3,25.5,28.7,38.2,43.1
		c0.9,1,1.8,1.9,2.9,3.1c5-5.7,9.9-11.2,14.8-16.7c7.9-9,16.4-17.6,23.7-27c9.5-12.3,27-10.1,31.7,5c0,2.6,0,5.3,0,7.9
		c-1.3,2.4-2.3,5-4,7c-9.5,11-19.2,21.8-28.8,32.7c-4.9,5.6-9.9,11.2-14.8,16.8c14.1,15.9,28,31.5,41.7,47.3c2.4,2.8,4,6.4,5.9,9.7
		C493.3,167.3,493.3,170,493.3,172.6z"/>
	<path fill="#00A9F3" d="M92.9,26.8c3.8,0.8,7.6,1.5,11.4,2.3c8,1.7,15.5,4.8,22.5,8.9c8.4,4.9,11.2,15,6.4,23.2
		c-4.9,8.3-15,10.9-23.6,6.1C81.4,51,45.9,67.5,40,99.7c-4.5,24.8,13,49.9,37.8,54c11.4,1.9,22.1-0.1,32.3-5.7
		c9.9-5.5,21.6-0.8,24.7,9.5c2.3,7.7-0.6,15.6-7.6,19.7c-10.5,6.2-21.8,9.9-33.9,10.8c-28.5,2.1-51.9-8.1-70.1-30
		c-9.5-11.5-15.1-24.9-17-39.8c-0.1-1-0.7-2-1.1-2.9c0-1.4,0-2.8,0-4.3c0-2,0-4.1,0-6.1c0-1.6,0-3.3,0-4.9c0.4-0.9,1-1.7,1.1-2.6
		c4.5-34.7,30.6-62.4,65-68.9c2.2-0.4,4.4-1.1,6.5-1.7c0.8,0,1.6,0,2.4,0c0.8,0.2,1.6,0.3,2.4,0.5c2.5-0.2,4.9-0.3,7.4-0.5
		C90.9,26.8,91.9,26.8,92.9,26.8z"/>
	<path fill="#002F86" d="M299.2,306.3c-10.6-12.2-21.2-24.3-31.9-36.5c-3.1-3.6-6.3-7.1-10-11.3c0,16,0,31.1,0,46.3
		c-3.6,0-7,0-10.5,0c0-23,0-46,0-69.1c2.1-0.7,3.6,0,5.1,1.7c12.3,14.2,24.8,28.2,37.2,42.3c0.6,0.7,1.3,1.4,2.6,2.7
		c0-15.7,0-30.6,0-45.7c3.8,0,7.2,0,10.9,0c0,0.8,0.1,1.6,0.1,2.5c0,21.2,0,42.5,0,63.7c0,1.1-0.4,2.1-0.6,3.2
		C301.2,306.3,300.2,306.3,299.2,306.3z"/>
	<path fill="#002F87" d="M103.9,306.3c-1.4-0.4-2.8-0.9-4.2-1.3c-11.6-3.2-18.8-12-19.4-25.4c-0.6-13.2-0.2-26.4-0.2-39.6
		c0-0.9,0-1.8,0-3c3.6,0,7.1,0,10.9,0c0,1.1,0,2.2,0,3.2c0,13.1-0.1,26.2,0.1,39.3c0.1,7.2,3.2,12.9,10.3,15.4
		c6.8,2.4,13.5,1.9,19-3.4c3.6-3.4,4.8-7.9,4.8-12.7c0-12.8,0-25.6,0-38.4c0-1.1,0-2.2,0-3.5c3.7,0,7.2,0,10.9,0
		c0,5.1,0,10.2,0,15.2c0,8.4,0,16.9,0,25.3c0,16-9.7,27-24.3,28.4c-0.2,0-0.5,0.3-0.7,0.5C108.8,306.3,106.3,306.3,103.9,306.3z"/>
	<path fill="#002F86" d="M403.6,306.3c-1-0.4-1.9-0.9-2.9-1.2c-6.7-1.8-12.2-5.4-16.4-11.3c2.6-1.9,5-3.8,7.2-5.5
		c3.2,2.3,5.9,4.8,9.1,6.4c5,2.5,10.4,2.7,15.4-0.4c5.5-3.4,5.7-11.1,0.1-14.5c-4.8-2.9-10-4.9-14.9-7.6c-3.3-1.8-6.6-3.6-9.4-6.1
		c-7.8-7.2-7.2-18.9,1.1-25.6c10.3-8.4,27.9-5.8,35.6,5.5c-2.5,1.9-4.9,3.7-7.4,5.7c-4.8-5.2-10.3-7.5-17.1-5.8
		c-3.5,0.9-5.8,3-6.4,6.6c-0.6,3.5,0.8,6.3,3.8,8c4.2,2.3,8.5,4.2,12.8,6.4c3,1.5,6,3,8.8,4.9c6.1,4.1,8.9,9.9,8,17.2
		c-0.9,7.4-5.2,12.4-12,15.2c-2.6,1-5.4,1.5-8,2.3C408.4,306.3,406,306.3,403.6,306.3z"/>
	<path fill="#002F86" d="M461.5,306.3c-0.9-0.4-1.7-0.9-2.6-1.1c-6.9-1.7-12.4-5.4-16.7-11.4c2.5-1.9,5-3.8,7.6-5.7
		c1.7,1.5,3.2,3.1,4.9,4.4c5.8,4.5,14.1,5.2,19.4,1.8c5.3-3.5,5.6-10.9,0.2-14.3c-4.6-2.8-9.6-4.8-14.3-7.3
		c-3.1-1.7-6.4-3.3-9.1-5.5c-9.4-7.8-8.5-21.2,1.8-27.9c10.7-6.9,27.2-3.7,33.8,6.8c-2.4,1.8-4.8,3.6-7.3,5.6c-3.9-4-8.3-6.7-14-6.3
		c-1.4,0.1-2.8,0.3-4.2,0.8c-3,1-5,3.2-5.5,6.3c-0.5,3.2,0.6,6,3.4,7.6c4.5,2.5,9.2,4.6,13.8,7c2.8,1.4,5.6,2.9,8.2,4.6
		c6.1,4.1,8.9,9.9,7.9,17.3c-1,7.3-5.1,12.3-11.8,15c-2.5,1-5.1,1.6-7.6,2.4C466.8,306.3,464.2,306.3,461.5,306.3z"/>
	<path fill="#002F86" d="M171,306.3c-3.5-1.4-7.3-2.3-10.5-4.2c-3.5-2.1-6.4-5-9.9-7.9c3.2-2.4,5.6-4.2,8.2-6.2
		c1.6,1.4,3.1,2.9,4.7,4.2c4.8,3.8,10.1,4.9,16.1,3.6c3.9-0.9,6.9-3.9,7.4-7.2c0.6-4.2-0.8-7.5-4.6-9.4c-6-3.1-12.1-5.8-18-9
		c-4.9-2.7-9-6.4-10.4-12.1c-2.4-10.2,3.8-19.1,14.8-21.9c10-2.5,20.2,1.1,26.9,9.6c-2.5,1.9-4.9,3.7-7.5,5.7
		c-3.8-4-8.2-6.6-13.7-6.3c-1.4,0.1-2.8,0.3-4.2,0.7c-3.1,1-5.2,3.2-5.7,6.5c-0.4,3.2,0.7,6,3.5,7.5c4.6,2.6,9.4,4.7,14.1,7.1
		c2.8,1.4,5.6,2.9,8.2,4.7c6.2,4.3,8.7,10.4,7.5,17.7c-1.1,7-5.3,11.8-11.8,14.3c-2.5,1-5.1,1.6-7.7,2.3
		C175.9,306.3,173.5,306.3,171,306.3z"/>
	<path fill="#0096E2" d="M251.6,26.8c0.7,0.4,1.4,0.7,2,1.1c-1.3,0.8-2.9,1.4-4,2.4c-27.8,27.7-55.5,55.4-83.2,83.1
		c-1.8,1.8-3.2,3.6-2.8,6.3c-0.2-1.8-0.4-3.6-0.6-5.5c0-0.5,0.1-1,0.1-1.4c0.6-0.5,1.3-1,1.8-1.6c27.4-27.4,54.8-54.8,82.2-82.2
		c0.5-0.5,0.9-1.1,1.4-1.6c0.2-0.2,0.4-0.5,0.6-0.7C250,26.8,250.8,26.8,251.6,26.8z"/>
	<path fill="#009DE8" d="M163.1,112.8c0,0.5-0.1,1-0.1,1.4c0-4.3,0-8.7,0-13c0.4-0.3,0.9-0.5,1.2-0.9C188,76.6,211.8,52.8,235.6,29
		c0.6-0.6,0.9-1.5,1.4-2.3c0.2,0,0.4,0,0.6,0c0.6,0.2,1.2,0.4,1.8,0.5c0.4,0.1,0.8,0.1,1.2,0.2c-0.8,0.9-1.6,1.8-2.5,2.7
		c-24.2,24.2-48.4,48.4-72.6,72.6c-1.7,1.7-2.8,3.4-2.4,5.8c0,0.8,0,1.6,0,2.4C163.1,111.6,163.1,112.2,163.1,112.8z"/>
	<path fill="#009EE9" d="M236.9,26.8c-0.5,0.8-0.8,1.6-1.4,2.3c-23.8,23.8-47.5,47.6-71.3,71.3c-0.4,0.4-0.8,0.6-1.2,0.9
		c0-0.6,0.1-1.2,0.1-1.9c0.2-0.4,0.4-0.8,0.6-1.2c0.9-0.8,1.9-1.6,2.7-2.4c21.8-21.8,43.7-43.7,65.5-65.5c1.1-1.1,2.1-2.3,3.2-3.5
		C235.7,26.8,236.3,26.8,236.9,26.8z"/>
	<path fill="#009FEA" d="M235.1,26.8c-1.1,1.2-2.1,2.4-3.2,3.5c-21.8,21.8-43.7,43.7-65.5,65.5c-0.9,0.9-1.8,1.6-2.7,2.4
		c0.7-1.2,1.3-2.7,2.2-3.7c21-21.1,42-42.1,63.1-63.2c0.9-0.9,1.6-1.8,2.4-2.7c0-0.2,0-0.4,0-0.5c1-0.4,2-0.9,3.1-1.3
		C234.7,26.8,234.9,26.8,235.1,26.8z"/>
	<path fill="#68C2EE" d="M240.6,27.4c-0.4-0.1-0.8-0.1-1.2-0.2c0-0.2,0-0.4,0-0.5c2.6,0,5.3,0,7.9,0c0,0.2,0,0.4,0,0.5
		c-0.2,0.1-0.4,0.1-0.7,0.2c-0.8,0-1.6,0-2.4,0C243,27.4,241.8,27.4,240.6,27.4z"/>
	<path fill="#67CAF6" d="M89.8,26.8c-2.5,0.2-4.9,0.3-7.4,0.5c0-0.2,0-0.3,0.1-0.5C85,26.8,87.4,26.8,89.8,26.8z"/>
	<path fill="#ADE2F9" d="M5,104.9c0,2,0,4.1,0,6.1C5,109,5,106.9,5,104.9z"/>
	<path fill="#A7E0F9" d="M82.5,26.8c0,0.2,0,0.3-0.1,0.5c-0.8-0.2-1.6-0.3-2.4-0.5C80.9,26.8,81.7,26.8,82.5,26.8z"/>
	<path fill="#ABDCF4" d="M247.3,27.3c0-0.2,0-0.4,0-0.5c0.6,0,1.2,0,1.8,0c-0.2,0.2-0.4,0.5-0.6,0.7
		C248.1,27.4,247.7,27.4,247.3,27.3z"/>
	<path fill="#ABDDF6" d="M239.4,26.8c0,0.2,0,0.4,0,0.5c-0.6-0.2-1.2-0.4-1.8-0.5C238.2,26.8,238.8,26.8,239.4,26.8z"/>
	<path fill="#002F86" d="M55.5,267.2c2.9,2.3,5.9,4,8,6.4c4.9,5.7,5.1,12.6,2.5,19.2c-2.8,7-8.6,11-15.9,11.6
		c-9.4,0.7-18.9,0.5-28.3,0.6c-5.6,0.1-5.6,0-5.6-5.6c0-19.6,0-39.3,0-58.9c0-1.1,0-2.2,0-3.5c0.7-0.1,1.3-0.3,1.8-0.3
		c7.7,0,15.5-0.1,23.2,0c9.2,0.2,16.2,5,18.5,12.6C61.7,256.2,60.1,262.2,55.5,267.2z M26.9,295.3c6.9,0,13.4,0.2,19.9-0.1
		c5.6-0.2,9.3-4,9.7-9.4c0.4-6.2-2.3-10.6-8.2-11.2c-7-0.7-14.1-0.2-21.3-0.2c0,5.9,0,11.8,0,17.8C26.9,293.2,26.9,294.1,26.9,295.3
		z M27.1,264.8c3.7,0,7.3,0,10.8,0c1,0,2,0.1,3,0c5-0.5,8.4-3.7,8.6-8.3c0.3-5.2-2.1-9.2-6.7-9.8c-5.2-0.6-10.5-0.6-15.8-0.8
		C27.1,252.4,27.1,258.4,27.1,264.8z"/>
	<path fill="#002F87" d="M323.4,304.8c0-22.5,0-45.1,0-67.8c14.8,0,29.6,0,44.6,0c0,3,0,6,0,9.4c-11.2,0-22.3,0-33.7,0
		c0,6,0,11.7,0,17.7c8.3,0,16.6,0,25.2,0c0,3.1,0,6,0,9.3c-8.2,0-16.6,0-25.2,0c0,7.4,0,14.5,0,21.9c11.5,0,23.2,0,35,0
		c0,3.4,0,6.4,0,9.6C354.1,304.8,339,304.8,323.4,304.8z"/>
	<path fill="#002F87" d="M213.9,236.8c3.8,0,7.2,0,10.7,0c0,22.6,0,45.2,0,68.2c-3.1,0-6.1,0.1-9.1-0.1c-0.5,0-1.3-0.8-1.5-1.4
		c-0.3-0.7-0.1-1.6-0.1-2.4c0-20.3,0-40.7,0-61C213.9,239.1,213.9,238.1,213.9,236.8z"/>
	<path fill="#0093DF" d="M163.6,119.7c-0.4-2.7,1-4.5,2.8-6.3c27.8-27.7,55.5-55.4,83.2-83.1c1.1-1.1,2.6-1.6,4-2.4
		c1.2,0.2,2.5,0.4,3.7,0.6c-0.8,0.4-1.7,0.7-2.3,1.3c-12,11.9-23.9,23.8-35.8,35.8c-0.4,0.4-0.3,1.4-0.5,2.1
		C212,72.2,206.5,78,202.2,85c-1.5-1.8-2.3-0.1-3.1,0.7c-6.3,6.3-12.6,12.6-18.9,18.9c-5.5,5.4-11,10.8-16.4,16.2
		C163.7,120.4,163.7,120.1,163.6,119.7z"/>
	<path fill="#002F87" d="M316.9,140.3c-8.6,19.3-22.7,33.1-42.1,41.4c0.4-0.7,0.7-1.5,1.2-2.1c12.9-13,25.8-25.9,38.8-38.8
		c0.5-0.5,1.1-0.9,1.6-1.4C316.5,139.8,316.7,140.1,316.9,140.3z"/>
	<path fill="#004398" d="M323.1,100c0.2,0.8,0.3,1.7,0.5,2.5c-0.5,0.4-1.1,0.9-1.6,1.4c-27.4,27.4-54.9,54.8-82.3,82.3
		c-0.6,0.6-1,1.2-1.5,1.9c-0.6,0-1.2-0.1-1.8-0.1c-0.2-0.2-0.4-0.4-0.6-0.6c0.4-0.5,0.8-1.1,1.3-1.6c28.1-28.1,56.1-56.1,84.2-84.2
		C321.8,100.9,322.5,100.5,323.1,100z"/>
	<path fill="#00A9F3" d="M169.7,75c4.2-10.5,10.9-19.2,19.1-26.8c6.5-5.9,13.6-10.9,21.9-14.1c-0.4,0.5-0.7,1-1.1,1.4
		c-12.7,12.7-25.5,25.5-38.2,38.2C170.9,74.2,170.2,74.5,169.7,75z"/>
	<path fill="#00388F" d="M258.4,186.7c-1.2,0.2-2.4,0.4-3.7,0.6c-0.6,0-1.3,0-1.9-0.1c7.1-7.2,14.2-14.4,21.4-21.5
		c15-14.9,30-29.7,45-44.5c1.2-1.2,2.5-2.4,3.8-3.5l0.2,0.2c-0.3,1.2-0.5,2.4-0.8,3.5c-0.5,0.4-1,0.7-1.4,1.1
		c-20.7,20.7-41.4,41.4-62.1,62.1c-0.5,0.5-0.9,1.1-1.4,1.6C257.8,186.4,258.1,186.5,258.4,186.7z"/>
	<path fill="#003B92" d="M252.8,187.3c0.6,0,1.3,0,1.9,0.1c-2.2,0.2-4.4,0.4-6.6,0.6c-0.3,0-0.5-0.1-0.8-0.1
		c0.5-0.5,0.9-1.1,1.4-1.6c24.4-24.4,48.8-48.8,73.3-73.3c0.5-0.5,1.1-0.9,1.6-1.4l0.2,0.1c-0.2,2-0.4,4.1-0.6,6.1
		c0,0-0.2-0.2-0.2-0.2c0-0.7-0.1-1.3-0.2-2.9c-24.2,24.6-47.8,48.7-71.1,72.4C251.5,187.2,252.1,187.2,252.8,187.3z"/>
	<path fill="#004499" d="M323.1,100c-0.6,0.5-1.3,1-1.9,1.5c-28.1,28.1-56.1,56.1-84.2,84.2c-0.5,0.5-0.9,1.1-1.3,1.6
		c-0.7-0.1-1.3-0.1-2.4-0.2c0.8-0.9,1.3-1.5,1.9-2c28.6-28.6,57.2-57.2,85.8-85.8c0.6-0.6,1.4-1.2,2.1-1.7
		C323.1,98.4,323.1,99.2,323.1,100z"/>
	<path fill="#004196" d="M247.3,187.8c0.3,0,0.5,0.1,0.8,0.1c-3.3,0-6.7,0-10,0c0.5-0.6,1-1.3,1.5-1.9
		c27.4-27.4,54.8-54.9,82.3-82.3c0.5-0.5,1.1-0.9,1.6-1.4c0,3.1,0.1,6.2,0.1,9.2c0,0-0.2-0.1-0.2-0.1c0-1,0-2,0-3c0-1.1,0-2.1,0-4.2
		c-27.9,28.3-55.2,56.1-82.2,83.4c0.5,0,1.7,0,2.9,0C245.3,187.8,246.3,187.8,247.3,187.8z"/>
	<path fill="#00499D" d="M230.8,187.2c-2-0.4-4.1-0.8-6.1-1.2c0.7-0.8,1.4-1.7,2.2-2.5c9.5-9.5,19.1-19.1,28.6-28.6
		c0.8-0.8,1.4-1.7,2.1-2.6c3.1-1.4,6.1-2.8,9.2-4.2c-0.4,0.7-0.7,1.5-1.2,2.1c-6.7,6.6-13.4,13.2-20,19.9
		c-5.3,5.4-10.5,11.1-15.6,16.5C229.9,186.6,230.3,186.9,230.8,187.2z"/>
	<path fill="#0090DD" d="M218.8,67.7c0.1-0.7,0-1.7,0.5-2.1c11.9-12,23.8-23.9,35.8-35.8c0.6-0.6,1.5-0.9,2.3-1.3
		c1.2,0.2,2.4,0.4,3.6,0.7c-0.8,0.7-1.7,1.4-2.5,2.2c-9.3,9.3-18.7,18.6-28,28c-1,1-2,2-3,3c-0.1,0.1,0.2,0.7,0.4,1.1
		C224.8,64.8,221.8,66.3,218.8,67.7z"/>
	<path fill="#0090DD" d="M163.7,120.8c5.5-5.4,11-10.8,16.4-16.2c6.3-6.3,12.6-12.6,18.9-18.9c0.8-0.8,1.6-2.5,3.1-0.7
		c-1,2.2-2.1,4.4-3.1,6.6c-0.6,0.3-1.4,0.4-1.8,0.8c-10.4,10.3-20.7,20.6-31,31c-0.7,0.7-1,1.7-1.5,2.5
		C164.5,124.2,164.1,122.5,163.7,120.8z"/>
	<path fill="#00459A" d="M323.1,97.6c-0.7,0.6-1.4,1.1-2.1,1.7c-28.6,28.6-57.2,57.2-85.8,85.8c-0.6,0.6-1.1,1.2-1.9,2
		c1.1,0.1,1.7,0.1,2.4,0.2c0.2,0.2,0.4,0.4,0.6,0.6c-1.4-0.2-2.9-0.3-4.3-0.5c0.4-0.9,0.6-2,1.2-2.7c3.6-3.7,7.4-7.3,11.1-11
		c6.1-6,12.2-12.1,18.2-18.2c4.5-4.5,9-9,13.4-13.4c0.8-0.7,1.7-1.4,2.5-2.2c13.8-13.8,27.6-27.6,41.4-41.4c0.8-0.8,1.7-1.5,2.5-2.2
		c0.2,0,0.4,0,0.6,0C323,96.7,323,97.2,323.1,97.6z"/>
	<path fill="#003189" d="M316.9,140.3c-0.2-0.3-0.4-0.6-0.6-0.8c-0.5,0.5-1.1,0.9-1.6,1.4c-12.9,12.9-25.9,25.9-38.8,38.8
		c-0.5,0.5-0.8,1.4-1.2,2.1c-1.7,0.6-3.5,1.3-5.2,1.9c0-0.5-0.1-1.1,0.1-1.3c3.1-3.1,6.2-6.2,9.3-9.3c12.6-12.4,25.2-24.8,37.8-37.2
		c0.8-0.8,1.9-1.5,2.8-2.2C318.7,135.9,317.8,138.1,316.9,140.3z"/>
	<path fill="#00338A" d="M319.6,133.6c-0.9,0.7-2,1.4-2.8,2.2c-12.6,12.4-25.2,24.8-37.8,37.2c-3.1,3.1-6.3,6.2-9.3,9.3
		c-0.2,0.3-0.1,0.9-0.1,1.3c-1.2,0.4-2.5,0.8-3.7,1.2c0.4-0.8,0.5-1.7,1.1-2.2c17-17,34-34.1,51-51.1c0.5-0.5,1.1-0.9,1.9-1.5
		c0.1,0.9,0.1,1.4,0.2,1.9C319.9,132.6,319.7,133.1,319.6,133.6z"/>
	<path fill="#00A8F2" d="M169.7,75c0.6-0.4,1.2-0.8,1.7-1.3c12.7-12.7,25.5-25.5,38.2-38.2c0.4-0.4,0.7-0.9,1.1-1.4
		c1.8-0.8,3.7-1.5,5.5-2.3c-0.8,0.8-1.5,1.7-2.3,2.5c-13.4,13.5-26.9,26.9-40.3,40.3c-2,2-4.1,3.9-6.1,5.9
		C168.2,78.6,168.9,76.8,169.7,75z"/>
	<path fill="#00A4EE" d="M164.7,89.6c0.3-1,0.5-2,0.8-3c5.9-5.8,11.9-11.7,17.8-17.5c10.3-10.2,20.7-20.3,30.9-30.5
		c2.8-2.8,5.4-5.8,8-8.7c1-0.2,2-0.5,3.1-0.7c-0.4,0.5-0.7,1-1.1,1.4C205,49.8,185.8,69,166.6,88.2
		C166.1,88.7,165.4,89.1,164.7,89.6z"/>
	<path fill="#00489D" d="M323,96.3c-0.2,0-0.4,0-0.6,0c-0.1-0.7-0.1-1.3-0.2-2.4c-1.1,1-1.9,1.7-2.7,2.5
		c-11.2,11.2-22.4,22.4-33.6,33.5c-0.8,0.8-1.8,1.5-2.8,2.3c1.2-2.4,2.5-4.9,3.7-7.3c0.8-0.7,1.8-1.4,2.5-2.1
		c10.1-10,20.1-20.1,30.2-30.1c0.7-0.7,1.8-0.9,2.7-1.3C322.5,93.1,322.7,94.7,323,96.3z"/>
	<path fill="#00A5EF" d="M222.3,29.9c-2.7,2.9-5.2,5.9-8,8.7c-10.3,10.2-20.6,20.3-30.9,30.5c-5.9,5.8-11.9,11.7-17.8,17.5
		c0.3-1.2,0.7-2.5,1-3.7c0.6-0.5,1.4-0.8,1.9-1.4c16.4-16.4,32.8-32.8,49.2-49.2c0.4-0.4,0.6-0.8,0.9-1.2
		C219.8,30.7,221.1,30.3,222.3,29.9z"/>
	<path fill="#006EBE" d="M298,48.7c0.8,0.8,1.7,1.6,2.5,2.4c-5.8,5.7-11.5,11.3-17.3,16.9c-2.2,2.2-4.6,4.3-6.8,6.4
		c-0.7-0.7-1.5-1.3-2.2-2c0.5-0.8,0.8-1.6,1.4-2.2c6.7-6.8,13.4-13.5,20.2-20.2C296.4,49.5,297.3,49.2,298,48.7z"/>
	<path fill="#00358C" d="M320,132c0-0.5-0.1-1-0.2-1.9c-0.8,0.6-1.4,1-1.9,1.5c-17,17-34,34-51,51.1c-0.6,0.6-0.7,1.5-1.1,2.2
		c-0.8,0.2-1.6,0.4-2.3,0.6c-1-0.9-1-0.9,0.4-2.3c11.1-11,22.3-21.9,33.4-32.8c7.2-7.1,14.3-14.3,21.6-21.5c0.6-0.6,1.6-0.8,2.4-1.2
		C320.8,129.1,320.4,130.6,320,132z"/>
	<path fill="#00368C" d="M321.3,127.7c-0.8,0.4-1.8,0.6-2.4,1.2c-7.2,7.1-14.3,14.3-21.6,21.5c-11.1,11-22.3,21.9-33.4,32.8
		c-1.4,1.4-1.4,1.4-0.4,2.3c-0.8,0.2-1.6,0.4-2.5,0.6c-2.2-1.4,0.2-2,0.7-2.5c19.2-19.3,38.4-38.5,57.6-57.7
		c0.6-0.6,1.2-1.1,1.8-1.7c0.2,0.3,0.5,0.7,0.7,1C321.7,126.1,321.5,126.9,321.3,127.7z"/>
	<path fill="#004A9F" d="M322.3,91.4c-0.9,0.4-2,0.6-2.7,1.3c-10.1,10-20.1,20.1-30.2,30.1c-0.8,0.8-1.7,1.4-2.5,2.1
		c0.6-1.8,1.1-3.7,1.7-5.5c0.9-0.7,1.8-1.3,2.6-2c9.1-9,18.1-18.1,27.2-27.1c0.9-0.9,2-1.7,3-2.6C321.6,89,322,90.2,322.3,91.4z"/>
	<path fill="#00A0EB" d="M231.4,28.6c-0.8,0.9-1.6,1.9-2.4,2.7c-21,21-42.1,42.1-63.1,63.2c-1,1-1.5,2.5-2.2,3.7
		c-0.2,0.4-0.4,0.8-0.6,1.2c0.2-1.6,0.4-3.3,0.6-4.9c0.8-0.7,1.7-1.4,2.5-2.2c20.6-20.6,41.1-41.1,61.7-61.6
		C228.9,29.7,230.3,29.3,231.4,28.6z"/>
	<path fill="#008EDB" d="M164.8,125.9c0.5-0.8,0.9-1.8,1.5-2.5c10.3-10.4,20.6-20.7,31-31c0.4-0.4,1.2-0.5,1.8-0.8
		c-0.4,1.4-0.9,2.8-1.3,4.2c-0.8,0.7-1.7,1.4-2.5,2.2c-9.2,9.2-18.4,18.4-27.6,27.6c-0.9,0.9-1.6,1.8-2.4,2.7
		C165.2,127.5,165,126.7,164.8,125.9z"/>
	<path fill="#0053A7" d="M317.4,76.2c0.4,1,0.8,2,1.2,3.1c-0.9,0.4-2,0.6-2.7,1.3c-7.7,7.6-15.4,15.4-23.1,23
		c-1.7,1.7-2.5,3.3-2.2,5.6c-0.2,0.8-0.4,1.6-0.6,2.4c-0.1-3.2-0.2-6.4-0.3-9.7c0.9-0.8,1.9-1.5,2.8-2.3
		c7.4-7.4,14.8-14.8,22.3-22.2C315.4,76.8,316.5,76.6,317.4,76.2z"/>
	<path fill="#004BA0" d="M257.6,152.4c-0.7,0.9-1.3,1.8-2.1,2.6c-9.5,9.6-19.1,19.1-28.6,28.6c-0.8,0.8-1.5,1.6-2.2,2.5
		c-0.8-0.2-1.6-0.4-2.4-0.6c0.7-1,1.2-2.1,2-2.9c8.8-8.8,17.6-17.6,26.3-26.4c0.8-0.8,1.4-1.7,2.1-2.5
		C254.4,153.2,256,152.8,257.6,152.4z"/>
	<path fill="#00A1EC" d="M231.4,28.6c-1.2,0.7-2.6,1.1-3.5,2c-20.6,20.5-41.1,41.1-61.7,61.6c-0.8,0.8-1.7,1.5-2.5,2.2
		c0.2-0.8,0.3-1.6,0.5-2.4c0.9-0.8,1.9-1.5,2.7-2.4c19.3-19.3,38.6-38.5,57.8-57.8c1.1-1.1,2.4-2.2,3.6-3.3c1-0.2,2-0.4,3.1-0.6
		C231.4,28.2,231.4,28.4,231.4,28.6z"/>
	<path fill="#0087D5" d="M168.6,137.9c-0.4-1.2-0.9-2.4-1.3-3.6c1-0.9,2-1.7,2.9-2.6c8.6-8.5,17.2-17,25.8-25.6c0,1.4,0,2.8,0,4.3
		c-3.1,3-6.3,6-9.4,9.1C180.6,125.6,174.6,131.7,168.6,137.9z"/>
	<path fill="#00378D" d="M321.9,125.3c-0.2-0.3-0.5-0.7-0.7-1c-0.6,0.5-1.2,1.1-1.8,1.7c-19.2,19.2-38.5,38.5-57.6,57.7
		c-0.5,0.5-2.9,1-0.7,2.5c-0.9,0.2-1.7,0.4-2.6,0.6c-0.3-0.2-0.6-0.4-0.9-0.5c0.5-0.5,0.9-1.1,1.4-1.6
		c20.7-20.7,41.4-41.4,62.1-62.1c0.4-0.4,0.9-0.8,1.4-1.1C322.2,122.7,322,124,321.9,125.3z"/>
	<path fill="#0087D5" d="M271.3,32.2c1,0.4,2,0.8,3,1.2c-1,0.5-2.3,0.8-3.1,1.6c-7.9,7.8-15.7,15.6-23.4,23.4
		c-0.6,0.6-0.7,1.6-1,2.4c-0.4,0-0.8,0-1.2,0c-1.1-0.3-2.2-0.6-3.5-1c9.1-9.1,17.9-18,26.9-26.8C269.4,32.6,270.4,32.5,271.3,32.2z"
		/>
	<path fill="#00A2ED" d="M228.4,28.6c-1.2,1.1-2.4,2.1-3.6,3.3c-19.3,19.3-38.5,38.5-57.8,57.8c-0.9,0.9-1.8,1.6-2.7,2.4
		c0.2-0.8,0.3-1.6,0.5-2.5c0.6-0.5,1.4-0.9,1.9-1.4C185.8,69,205,49.8,224.2,30.6c0.4-0.4,0.8-0.9,1.1-1.4
		C226.4,29,227.4,28.8,228.4,28.6z"/>
	<path fill="#0054A7" d="M213.6,182.6c-0.8-0.3-1.6-0.7-2.3-1c1.2-1.5,2.3-3,3.6-4.4c7.5-7.7,15.1-15.3,22.6-23
		c3.1,0,6.1,0.1,9.2,0.1c-0.6,0.2-1.2,0.4-1.8,0.5c-2.4-0.2-4.5,0.2-6.1,2.5c-1.4,2-3.5,3.5-5.3,5.3
		C226.9,169.4,220.3,176,213.6,182.6z"/>
	<path fill="#0051A5" d="M213.6,182.6c6.6-6.6,13.3-13.3,19.9-19.9c1.8-1.8,3.8-3.3,5.3-5.3c1.6-2.3,3.7-2.6,6.1-2.5
		c-4.4,4.5-8.8,9-13.2,13.5c-5,5.1-9.9,10.1-14.9,15.2C215.7,183.3,214.7,183,213.6,182.6z"/>
	<path fill="#0058AB" d="M314.5,70.1c0.4,0.8,0.8,1.6,1.2,2.5c-8.8,8.8-17.5,17.5-26.3,26.3c-0.2-0.9-0.5-1.9-0.7-2.8
		C297.3,87.3,305.9,78.7,314.5,70.1z"/>
	<path fill="#0058AB" d="M209.4,180.7c-1.2-0.6-2.5-1.2-3.7-1.7c0.7-0.8,1.4-1.8,2.1-2.5c6.7-6.7,13.5-13.4,20.1-20.2
		c1.7-1.8,3.5-2.9,6.1-2.6c0,0,0.3,0,0.3,0l0.2,0.1c-0.7,0.8-1.4,1.7-2.2,2.5c-7.1,7.2-14.3,14.3-21.4,21.5
		C210.1,178.5,209.9,179.7,209.4,180.7z"/>
	<path fill="#00479C" d="M276,142.1c-4.5,4.5-9,9-13.4,13.4c-6.1,6.1-12.1,12.1-18.2,18.2c-3.7,3.7-7.4,7.3-11.1,11
		c-0.6,0.7-0.8,1.8-1.2,2.7c-0.4-0.1-0.8-0.1-1.2-0.2c-0.5-0.3-1-0.6-0.8-0.5c5.1-5.5,10.3-11.1,15.6-16.5
		c6.6-6.7,13.4-13.2,20-19.9c0.6-0.6,0.8-1.4,1.2-2.1c3-2.3,6-4.6,9.1-7C275.9,141.5,276,141.8,276,142.1z"/>
	<path fill="#004FA3" d="M290.1,111.6c0.2-0.8,0.4-1.6,0.6-2.4c1-0.9,2.1-1.9,3.1-2.9c8.5-8.4,17-16.8,25.5-25.2
		c0.4,1.2,0.8,2.4,1.2,3.7c-0.9,0.4-2,0.6-2.7,1.3c-8.5,8.4-16.9,16.9-25.4,25.3c-0.8,0.8-1.7,1.4-2.6,2
		C289.9,112.8,290,112.2,290.1,111.6z"/>
	<path fill="#004DA1" d="M252.8,153.6c-0.7,0.9-1.3,1.8-2.1,2.5c-8.8,8.8-17.6,17.6-26.3,26.4c-0.8,0.8-1.4,1.9-2,2.9
		c-0.6-0.2-1.2-0.4-1.8-0.5c0.2-0.9,0.2-2.2,0.8-2.8c9.3-9.3,18.6-18.6,27.9-27.8C250.3,154.1,251.6,153.8,252.8,153.6z"/>
	<path fill="#0076C6" d="M289.9,42.1c0.8,0.6,1.6,1.2,2.5,1.8c-0.9,0.6-1.9,1.1-2.7,1.8c-4.6,4.5-9.1,9-13.6,13.6
		c-2.8,2.8-5.4,5.7-8.2,8.6c-0.8-0.5-1.6-1-2.4-1.5c0.4-0.7,0.6-1.5,1.2-2c7-7.1,14.1-14.1,21.1-21.1
		C288.5,42.7,289.3,42.4,289.9,42.1z"/>
	<path fill="#006DBE" d="M186.9,165.2c-0.8-0.8-1.6-1.6-2.4-2.4c4.3-4.3,8.5-8.7,12.8-13c3.7-3.6,7.4-7.2,11.1-10.7
		c0.8,0.8,1.6,1.7,2.4,2.5c-0.8,0.4-1.7,0.7-2.3,1.3c-6.8,6.8-13.6,13.5-20.4,20.4C187.6,163.7,187.3,164.5,186.9,165.2z"/>
	<path fill="#0070C0" d="M208.4,139c-3.7,3.6-7.5,7.1-11.1,10.7c-4.3,4.3-8.5,8.7-12.8,13c-0.6-0.7-1.3-1.5-1.9-2.2
		c7.9-8,15.9-15.9,23.8-23.9C207.1,137.4,207.7,138.2,208.4,139z"/>
	<path fill="#0051A5" d="M319.3,81.1c-8.5,8.4-17,16.8-25.5,25.2c-1,1-2.1,1.9-3.1,2.9c-0.3-2.3,0.5-4,2.2-5.6
		c7.8-7.6,15.4-15.4,23.1-23c0.7-0.7,1.8-0.9,2.7-1.3C318.9,79.9,319.1,80.5,319.3,81.1z"/>
	<path fill="#0076C6" d="M179,156.1c-0.4-0.6-0.8-1.2-1.3-1.7c0.5-0.8,0.9-1.8,1.6-2.5c6.8-6.9,13.7-13.7,20.6-20.6
		c0.6-0.6,1.5-1,2.2-1.4c0.4,0.8,0.9,1.6,1.3,2.4c-0.9,0.8-1.8,1.6-2.7,2.4C193.4,141.9,186.2,149,179,156.1z"/>
	<path fill="#0085D3" d="M246.7,60.9c0.3-0.8,0.5-1.9,1-2.4c7.8-7.9,15.6-15.7,23.4-23.4c0.8-0.8,2-1.1,3.1-1.6
		c0.6,0.2,1.1,0.4,1.7,0.7c-8.7,8.9-17.3,17.9-25.9,26.7c0.2,0,0.9,0.1,1.5,0.1c0,0.2,0,0.4,0,0.6C250,61.3,248.3,61.1,246.7,60.9z"
		/>
	<path fill="#005CAF" d="M203.3,177.6c-0.8-0.5-1.6-0.9-2.4-1.4c0.2-0.3,0.3-0.8,0.6-1c4.6-4.7,9.1-9.4,13.8-14
		c3.5-3.4,7.1-6.6,10.7-9.9c1,0.4,2.1,0.8,3.1,1.2c-1.1,0.7-2.2,1.3-3.1,2.2C218.4,162.3,210.9,169.9,203.3,177.6z"/>
	<path fill="#0085D3" d="M168.6,137.9c6-6.1,12-12.3,18.1-18.4c3.1-3.1,6.2-6.1,9.4-9.1c0.2,0.6,0.4,1.2,0.5,1.8
		c0,0.4,0,0.8,0.1,1.2c-6.4,6.3-12.8,12.6-19.2,19c-2.6,2.6-5.2,5.4-7.7,8.1C169.3,139.6,168.9,138.7,168.6,137.9z"/>
	<path fill="#004FA3" d="M249.1,154.3c-9.3,9.3-18.6,18.5-27.9,27.8c-0.6,0.6-0.5,1.8-0.8,2.8c-1.2-0.4-2.4-0.8-3.7-1.2
		c5-5.1,9.9-10.1,14.9-15.2c4.4-4.5,8.8-9,13.2-13.5c0.6-0.2,1.2-0.4,1.8-0.5C247.5,154.4,248.3,154.3,249.1,154.3z"/>
	<path fill="#0056A9" d="M289.4,98.8c8.8-8.8,17.5-17.5,26.3-26.3c0.6,1.2,1.2,2.4,1.8,3.7c-0.9,0.4-2,0.6-2.7,1.3
		c-7.5,7.4-14.8,14.8-22.3,22.2c-0.9,0.8-1.9,1.5-2.8,2.3C289.6,100.9,289.5,99.8,289.4,98.8z"/>
	<path fill="#008CD9" d="M165.4,128.3c0.8-0.9,1.5-1.9,2.4-2.7c9.2-9.2,18.4-18.4,27.6-27.6c0.8-0.8,1.7-1.5,2.5-2.2
		c-0.4,1.7-0.7,3.4-1.1,5.1c-0.8,0.3-1.7,0.5-2.2,1.1c-6.5,6.4-13,12.9-19.4,19.4c-3.1,3.1-6,6.3-9.1,9.4
		C165.8,129.9,165.6,129.1,165.4,128.3z"/>
	<path fill="#0056A9" d="M209.4,180.7c0.5-1,0.7-2.2,1.4-2.9c7.1-7.2,14.3-14.3,21.4-21.5c0.8-0.8,1.5-1.6,2.2-2.5
		c1,0.2,2,0.4,3.1,0.5c-7.5,7.7-15.1,15.3-22.6,23c-1.3,1.3-2.4,2.9-3.6,4.4C210.7,181.3,210.1,181,209.4,180.7z"/>
	<path fill="#007FCE" d="M173.4,147.8c-0.6-1.1-1.2-2.1-1.8-3.2c8.3-8.4,16.7-16.9,25-25.3c0.3-0.3,0.7-0.3,1.1-0.4
		c0.2,1,0.5,2,0.7,3c-0.7,0.4-1.5,0.6-2,1.1c-7.3,7.2-14.5,14.4-21.7,21.8C174,145.6,173.8,146.8,173.4,147.8z"/>
	<path fill="#005AAD" d="M203.3,177.6c7.5-7.6,15-15.3,22.6-22.9c0.9-0.9,2.1-1.5,3.1-2.2c1.6,0.4,3.3,0.8,4.9,1.2
		c-2.5-0.4-4.3,0.8-6.1,2.6c-6.6,6.8-13.4,13.5-20.1,20.2c-0.8,0.8-1.4,1.7-2.1,2.5C204.9,178.5,204.1,178,203.3,177.6z"/>
	<path fill="#007DCC" d="M283,37.7c0.7,0.4,1.5,0.9,2.2,1.3c-0.7,0.4-1.5,0.6-2,1.1c-7.3,7.2-14.5,14.4-21.7,21.7
		c-0.5,0.5-0.5,1.5-0.8,2.3c-1.2-0.4-2.4-0.8-3.7-1.2c0.2-0.3,0.4-0.7,0.7-1c7.6-7.7,15.3-15.3,22.9-22.9
		C281.3,38.3,282.2,38.1,283,37.7z"/>
	<path fill="#007FCE" d="M283,37.7c-0.8,0.4-1.7,0.7-2.3,1.3c-7.7,7.6-15.3,15.3-22.9,22.9c-0.3,0.3-0.4,0.7-0.7,1
		c-1-0.3-2-0.5-3-0.8c7.4-7.4,14.7-14.9,22.1-22.3c1.3-1.3,3.2-2.2,4.7-3.3C281.6,36.9,282.3,37.3,283,37.7z"/>
	<path fill="#00A6F0" d="M218.6,31.1c-0.3,0.4-0.6,0.8-0.9,1.2c-16.4,16.4-32.8,32.8-49.2,49.2c-0.6,0.6-1.3,0.9-1.9,1.4
		c0.3-0.8,0.6-1.6,0.9-2.4c2.1-2,4.1-3.9,6.1-5.9c13.5-13.4,26.9-26.9,40.3-40.3c0.8-0.8,1.5-1.6,2.3-2.5
		C217,31.5,217.8,31.3,218.6,31.1z"/>
	<path fill="#0067B9" d="M191.8,169.6c-0.6-0.6-1.3-1.1-1.9-1.7c1-1.2,1.9-2.5,3-3.6c6.9-6.8,13.8-13.6,20.7-20.3
		c0.7,0.6,1.4,1.1,2.2,1.7C207.8,153.7,199.8,161.6,191.8,169.6z"/>
	<path fill="#005AAD" d="M314.5,70.1c-8.6,8.6-17.2,17.3-25.8,25.9c-0.2-0.7-0.3-1.3-0.5-2c0.4-1,0.7-2.2,1.4-2.9
		c7.2-7.3,14.4-14.5,21.6-21.6c0.6-0.6,1.5-0.9,2.3-1.3C313.8,68.8,314.2,69.4,314.5,70.1z"/>
	<path fill="#005DAF" d="M313.5,68.2c-0.8,0.4-1.7,0.7-2.3,1.3c-7.2,7.2-14.5,14.4-21.6,21.6c-0.7,0.7-0.9,1.9-1.4,2.9
		c-0.4-1.2-0.8-2.4-1.2-3.6c0.2-0.3,0.4-0.7,0.7-1c7.5-7.5,14.9-15,22.4-22.4c0.5-0.5,1.4-0.8,2.1-1.1
		C312.5,66.6,313,67.4,313.5,68.2z"/>
	<path fill="#007DCC" d="M173.4,147.8c0.4-1,0.6-2.2,1.4-2.9c7.2-7.3,14.4-14.5,21.7-21.8c0.5-0.5,1.4-0.8,2-1.1
		c0.4,1,0.8,2,1.2,3.1c-0.9,0.4-2,0.6-2.7,1.2c-6.9,6.8-13.7,13.6-20.5,20.5c-0.8,0.8-1.3,2-2,3C174.2,149,173.8,148.4,173.4,147.8z
		"/>
	<path fill="#0074C4" d="M179,156.1c7.2-7.1,14.5-14.3,21.7-21.4c0.9-0.8,1.8-1.6,2.7-2.4c0.6,0.8,1.1,1.6,1.7,2.4
		c-0.5,0.2-1,0.3-1.3,0.6c-7.7,7.7-15.3,15.4-22.9,23.1C180.2,157.7,179.6,156.9,179,156.1z"/>
	<path fill="#0089D7" d="M271.3,32.2c-0.8,0.3-1.9,0.4-2.5,0.9c-8.9,8.8-17.8,17.7-26.9,26.8c1.4,0.4,2.5,0.7,3.5,1
		c-1.4,0-2.8,0-4.3,0c-0.7-0.3-1.4-0.6-2.2-1c9.1-9.1,18.1-18.2,27.2-27.1c0.7-0.7,2.2-0.8,3.3-1.1C270.1,31.8,270.7,32,271.3,32.2z
		"/>
	<path fill="#0079C8" d="M289.9,42.1c-0.7,0.4-1.5,0.7-2,1.2c-7.1,7-14.1,14.1-21.1,21.1c-0.5,0.5-0.8,1.4-1.2,2
		c-0.8-0.4-1.6-0.8-2.4-1.2c0.4-0.7,0.6-1.5,1.1-2c7-7.1,14.1-14.2,21.2-21.2c0.6-0.6,1.7-0.8,2.6-1.2
		C288.7,41.2,289.3,41.6,289.9,42.1z"/>
	<path fill="#0060B2" d="M199.1,175c-0.6-0.4-1.2-0.9-1.8-1.3c0.4-0.7,0.7-1.5,1.2-2c7-7,14-14,21-21c0.6-0.6,1.5-0.9,2.3-1.3
		c0.8,0.4,1.7,0.8,2.5,1.2c-0.6,0.3-1.4,0.4-1.9,0.9C214.6,159.3,206.9,167.2,199.1,175z"/>
	<path fill="#0060B2" d="M309.7,62.1c0.4,0.6,0.8,1.2,1.2,1.8c-1,0.7-2.2,1.3-3.1,2.2c-7.4,7.2-14.7,14.4-22,21.6
		c-0.2-0.5-0.5-1.1-0.7-1.6c0.4-0.8,0.7-1.7,1.3-2.3c7-7,14-14.1,21-21C307.9,62.4,308.9,62.4,309.7,62.1z"/>
	<path fill="#0065B7" d="M191.8,169.6c8-8,16-15.9,24-23.9c1,0.6,1.9,1.3,2.9,1.9c-1.1,0.6-2.4,1-3.3,1.8
		c-6.5,6.4-13,12.9-19.4,19.4c-0.7,0.8-1.2,1.8-1.8,2.7C193.4,170.9,192.6,170.2,191.8,169.6z"/>
	<path fill="#0074C4" d="M268,67.9c2.7-2.9,5.4-5.8,8.2-8.6c4.5-4.6,9-9.1,13.6-13.6c0.8-0.7,1.8-1.2,2.7-1.8
		c0.7,0.6,1.4,1.2,2.1,1.7c-0.8,0.5-1.8,0.9-2.5,1.5c-6.8,6.7-13.5,13.4-20.2,20.1c-0.6,0.6-0.9,1.5-1.4,2.3
		C269.7,69,268.8,68.4,268,67.9z"/>
	<path fill="#0089D7" d="M196,106.1c-8.6,8.5-17.2,17-25.8,25.6c-0.9,0.9-2,1.7-2.9,2.6c-0.2-0.4-0.3-0.8-0.5-1.3
		c0.7-1,1.2-2.1,2-2.9c7.6-7.7,15.3-15.3,22.9-23c1.3-1.3,2.4-2.7,3.6-4c0.3,0.2,0.5,0.3,0.8,0.5C196,104.4,196,105.3,196,106.1z"/>
	<path fill="#0066B7" d="M305.5,56.6c0.5,0.6,1,1.3,1.5,1.9c-0.5,0.2-1,0.2-1.4,0.6c-7.7,7.7-15.3,15.5-23,23.2
		c-0.4-0.6-0.8-1.2-1.2-1.8c0.4-0.8,0.7-1.7,1.3-2.3c6.7-6.8,13.4-13.5,20.2-20.2C303.7,57.4,304.7,57.1,305.5,56.6z"/>
	<path fill="#0072C2" d="M180.8,158.5c7.6-7.7,15.3-15.4,22.9-23.1c0.3-0.3,0.9-0.4,1.3-0.6c0.4,0.6,0.9,1.2,1.3,1.8
		c-7.9,8-15.9,15.9-23.8,23.9C182,159.8,181.4,159.2,180.8,158.5z"/>
	<path fill="#006BBC" d="M276.4,74.5c2.3-2.1,4.6-4.2,6.8-6.4c5.8-5.6,11.6-11.3,17.3-16.9c0.6,0.6,1.2,1.2,1.8,1.9
		c-7.9,7.9-15.9,15.8-23.8,23.8C277.8,76,277.1,75.2,276.4,74.5z"/>
	<path fill="#0072C2" d="M270.5,69.5c0.4-0.8,0.8-1.7,1.4-2.3c6.7-6.7,13.4-13.5,20.2-20.1c0.7-0.7,1.7-1,2.5-1.5
		c0.5,0.4,1,0.9,1.6,1.3c-3.9,3.8-7.9,7.6-11.7,11.5c-4.1,4.1-8,8.3-12.1,12.4C271.7,70.4,271.1,70,270.5,69.5z"/>
	<path fill="#008EDB" d="M227.8,63.4c-0.1-0.4-0.5-0.9-0.4-1.1c0.9-1.1,2-2,3-3c9.3-9.3,18.6-18.7,28-28c0.8-0.8,1.7-1.4,2.5-2.2
		c0.8,0.2,1.7,0.4,2.5,0.6c-1,0.6-2.1,1.2-2.9,2c-5.1,5-10.1,10-15.1,15c-4.5,4.5-9.1,9-13.5,13.6c-0.3,0.3-2.7,0.9-0.3,1.9
		C230.3,62.6,229,63,227.8,63.4z"/>
	<path fill="#0083D1" d="M169.7,140.5c2.6-2.7,5.1-5.5,7.7-8.1c6.4-6.4,12.8-12.6,19.2-19c0.2,1,0.4,2,0.6,3.1
		c-0.7,0.5-1.6,0.8-2.2,1.4c-7.5,7.5-15.1,15-22.5,22.6c-0.7,0.7-0.9,1.9-1.4,2.8C170.6,142.4,170.1,141.4,169.7,140.5z"/>
	<path fill="#006BBC" d="M186.9,165.2c0.4-0.7,0.7-1.5,1.2-2c6.8-6.8,13.5-13.6,20.4-20.4c0.6-0.6,1.5-0.9,2.3-1.3
		c0.7,0.6,1.3,1.2,2,1.8c-1.1,0.7-2.3,1.3-3.2,2.2c-7.2,7-14.3,14-21.4,21C187.7,166,187.3,165.6,186.9,165.2z"/>
	<path fill="#0083D1" d="M251.6,60.9c-0.7-0.1-1.3-0.1-1.5-0.1C258.6,52,267.3,43,276,34.1c0.8,0.4,1.5,0.8,2.3,1.2
		c-1,0.7-2,1.3-2.9,2.1C267.5,45.3,259.5,53.1,251.6,60.9z"/>
	<path fill="#0081CF" d="M251.6,60.9c7.9-7.8,15.9-15.7,23.8-23.5c0.8-0.8,1.9-1.4,2.9-2.1c0.9,0.4,1.7,0.8,2.6,1.2
		c-1.6,1.1-3.4,2-4.7,3.3c-7.4,7.4-14.8,14.8-22.1,22.3c-0.8-0.2-1.6-0.4-2.4-0.6C251.6,61.3,251.6,61.1,251.6,60.9z"/>
	<path fill="#008BD8" d="M196,106.1c0-0.9,0-1.7,0-2.6c-0.3-0.2-0.5-0.3-0.8-0.5c-1.2,1.3-2.3,2.7-3.6,4c-7.6,7.7-15.3,15.3-22.9,23
		c-0.8,0.8-1.3,1.9-2,2.9c-0.2-0.8-0.5-1.5-0.7-2.3c3-3.1,6-6.3,9.1-9.4c6.4-6.5,12.9-13,19.4-19.4c0.6-0.5,1.5-0.7,2.2-1.1
		c-0.1,3.8-0.1,7.6-0.2,11.4c-0.2-0.6-0.4-1.2-0.5-1.8C196,109,196,107.5,196,106.1z"/>
	<path fill="#0062B4" d="M221.8,149.4c-0.8,0.4-1.7,0.7-2.3,1.3c-7,7-14,14-21,21c-0.5,0.5-0.8,1.3-1.2,2c-0.6-0.4-1.2-0.8-1.8-1.2
		c0.3-0.7,0.4-1.6,0.9-2.1c6.8-6.7,13.6-13.5,20.5-20.1c0.9-0.9,2.5-1.1,3.8-1.6C221,149,221.4,149.2,221.8,149.4z"/>
	<path fill="#0081CF" d="M171,143.3c0.5-1,0.7-2.1,1.4-2.8c7.5-7.6,15-15.1,22.5-22.6c0.6-0.6,1.5-1,2.2-1.4
		c0.2,0.8,0.4,1.6,0.6,2.4c-0.4,0.1-0.9,0.1-1.1,0.4c-8.4,8.4-16.7,16.8-25,25.3C171.4,144.2,171.2,143.7,171,143.3z"/>
	<path fill="#004CA0" d="M321.3,87.7c-1,0.9-2,1.7-3,2.6c-9.1,9-18.1,18.1-27.2,27.1c-0.8,0.8-1.7,1.4-2.6,2c0.3-1,0.5-2,0.8-3
		c0.8-0.7,1.7-1.4,2.5-2.2c8.8-8.8,17.7-17.7,26.5-26.5c0.7-0.7,1.4-2.4,2.7-0.6C321.3,87.3,321.4,87.5,321.3,87.7z"/>
	<path fill="#008BD8" d="M269.5,31.6c-1.1,0.4-2.5,0.4-3.3,1.1c-9.1,8.9-18.1,18-27.2,27.1c0.9,0.4,1.6,0.7,2.2,1
		c-1,0-1.9,0.1-2.9,0.1c-0.7-0.1-1.4-0.2-2.7-0.4c5.6-5.5,10.8-10.7,15.9-15.9c4.7-4.8,9.4-9.6,14.1-14.4
		C266.9,30.8,268.2,31.2,269.5,31.6z"/>
	<path fill="#004DA1" d="M321.1,87.2c-1.4-1.7-2-0.1-2.7,0.6c-8.8,8.8-17.7,17.6-26.5,26.5c-0.8,0.8-1.7,1.5-2.5,2.2
		c0.1-1,0.3-2.1,0.4-3.1c0.9-0.7,1.8-1.3,2.6-2c8.5-8.4,16.9-16.9,25.4-25.3c0.7-0.7,1.8-0.9,2.7-1.3
		C320.7,85.6,320.9,86.4,321.1,87.2z"/>
	<path fill="#0079C8" d="M202,129.9c-0.7,0.5-1.6,0.8-2.2,1.4c-6.9,6.8-13.7,13.7-20.6,20.6c-0.7,0.7-1,1.6-1.6,2.5
		c-0.6-0.8-1.2-1.7-1.8-2.5c1.2-1.1,2.4-2.1,3.6-3.3c6.2-6.2,12.3-12.4,18.6-18.5c0.8-0.8,1.9-1.4,2.9-2
		C201.3,128.7,201.7,129.3,202,129.9z"/>
	<path fill="#005EB0" d="M285.8,87.8c7.3-7.2,14.6-14.5,22-21.6c0.9-0.9,2.1-1.5,3.1-2.2c0.4,0.6,0.8,1.2,1.2,1.8
		c-0.7,0.4-1.5,0.6-2.1,1.1c-7.5,7.4-15,14.9-22.4,22.4c-0.3,0.3-0.4,0.7-0.7,1C286.5,89.5,286.1,88.7,285.8,87.8z"/>
	<path fill="#0062B4" d="M309.7,62.1c-0.8,0.2-1.8,0.3-2.3,0.8c-7.1,7-14.1,14-21,21c-0.6,0.6-0.9,1.5-1.3,2.3
		c-0.4-0.7-0.8-1.3-1.2-2c1.5-1.8,2.9-3.8,4.6-5.5c6.4-6.4,13-12.7,19.4-19.1C308.5,60.5,309.1,61.3,309.7,62.1z"/>
	<path fill="#008CD9" d="M265.6,30.4c-4.7,4.8-9.3,9.6-14.1,14.4c-5.1,5.2-10.4,10.3-15.9,15.9c1.2,0.2,1.9,0.3,2.7,0.4
		c-1.4,0.2-2.8,0.4-4.3,0.6c-2.4-0.8-0.1-1.6,0.2-1.9c7.9-7.9,16-15.7,23.9-23.5c2-2,3.8-4.2,5.7-6.4C264.4,30,265,30.2,265.6,30.4z
		"/>
	<path fill="#0067B9" d="M305.5,56.6c-0.8,0.5-1.8,0.8-2.5,1.5c-6.8,6.7-13.5,13.4-20.2,20.2c-0.6,0.6-0.9,1.5-1.3,2.3
		c-0.4-0.6-0.8-1.2-1.3-1.8c0.5-0.8,0.9-1.8,1.5-2.5c6.6-6.7,13.3-13.4,20-20c0.6-0.6,1.5-0.9,2.2-1.4C304.5,55.4,305,56,305.5,56.6
		z"/>
	<path fill="#0070C0" d="M272.3,70.8c4-4.1,8-8.3,12.1-12.4c3.9-3.9,7.8-7.7,11.7-11.5c0.6,0.6,1.3,1.2,1.9,1.8
		c-0.8,0.4-1.7,0.8-2.3,1.4c-6.8,6.7-13.5,13.4-20.2,20.2c-0.6,0.6-0.9,1.5-1.4,2.2C273.5,72,272.9,71.4,272.3,70.8z"/>
	<path fill="#0069BA" d="M304,54.9c-0.8,0.5-1.6,0.8-2.2,1.4c-6.7,6.6-13.4,13.3-20,20c-0.7,0.7-1,1.7-1.5,2.5
		c-0.6-0.7-1.2-1.4-1.8-2c7.9-7.9,15.9-15.8,23.8-23.8C302.9,53.6,303.4,54.2,304,54.9z"/>
	<path fill="#005EB1" d="M199.1,175c7.8-7.9,15.5-15.7,23.3-23.5c0.5-0.5,1.2-0.6,1.9-0.9c0.6,0.2,1.1,0.5,1.7,0.7
		c-3.6,3.3-7.2,6.5-10.7,9.9c-4.7,4.6-9.2,9.3-13.8,14c-0.3,0.3-0.4,0.7-0.6,1C200.3,175.8,199.7,175.4,199.1,175z"/>
	<path fill="#008DDA" d="M263.8,29.8c-1.9,2.1-3.6,4.4-5.7,6.4c-7.9,7.9-16,15.7-23.9,23.5c-0.3,0.3-2.6,1-0.2,1.9
		c-0.8,0.2-1.7,0.4-2.5,0.6c-2.4-0.9,0-1.6,0.3-1.9c4.4-4.6,9-9.1,13.5-13.6c5-5,10-10.1,15.1-15c0.8-0.8,2-1.3,2.9-2
		C263.5,29.6,263.7,29.7,263.8,29.8z"/>
	<path fill="#007AC9" d="M200.9,128.1c-1,0.7-2.1,1.2-2.9,2c-6.2,6.1-12.4,12.3-18.6,18.5c-1.1,1.1-2.4,2.2-3.6,3.3
		c-0.2-0.4-0.4-0.7-0.7-1.1c0.3-0.5,0.5-1.2,0.9-1.6c7.3-7.2,14.5-14.4,21.8-21.5c0.6-0.6,1.5-1,2.2-1.4
		C200.5,126.9,200.7,127.5,200.9,128.1z"/>
	<path fill="#007BCA" d="M200.2,126.3c-0.7,0.5-1.6,0.8-2.2,1.4c-7.3,7.1-14.6,14.3-21.8,21.5c-0.4,0.4-0.6,1-0.9,1.6
		c-0.2-0.4-0.5-0.7-0.7-1.1c0.6-1,1.1-2.1,2-3c6.8-6.9,13.6-13.7,20.5-20.5c0.7-0.7,1.8-0.8,2.7-1.2
		C199.9,125.4,200.1,125.8,200.2,126.3z"/>
	<path fill="#007BCA" d="M260.7,64.1c0.2-0.8,0.3-1.8,0.8-2.3c7.2-7.3,14.4-14.5,21.7-21.7c0.5-0.5,1.4-0.8,2-1.1
		c0.2,0.1,0.5,0.3,0.7,0.4c-0.8,0.9-1.5,1.9-2.3,2.7c-7.4,7.5-14.8,14.9-22.2,22.3C261.1,64.3,260.9,64.2,260.7,64.1z"/>
	<path fill="#0064B5" d="M307.9,59.7c-6.5,6.4-13,12.7-19.4,19.1c-1.7,1.7-3,3.7-4.5,5.5c-0.4-0.7-0.8-1.3-1.2-2
		c7.7-7.7,15.3-15.5,23-23.2c0.3-0.3,0.9-0.4,1.4-0.6C307.3,58.9,307.6,59.3,307.9,59.7z"/>
	<path fill="#0069BA" d="M188.2,166.4c7.1-7,14.2-14,21.4-21c0.9-0.9,2.1-1.5,3.2-2.2c0.3,0.2,0.6,0.5,0.9,0.7
		c-6.9,6.8-13.8,13.5-20.7,20.3c-1.1,1.1-2,2.4-3,3.6C189.3,167.4,188.7,166.9,188.2,166.4z"/>
	<path fill="#0164B5" d="M220.6,148.7c-1.3,0.5-2.8,0.7-3.8,1.6c-6.9,6.6-13.7,13.3-20.5,20.1c-0.5,0.5-0.6,1.4-0.9,2.1
		c-0.4-0.3-0.8-0.7-1.2-1c0.6-0.9,1-2,1.8-2.7c6.4-6.5,12.9-13,19.4-19.4c0.9-0.8,2.2-1.2,3.3-1.8C219.3,148,220,148.4,220.6,148.7z
		"/>
	<path fill="#007AC9" d="M261.4,64.4c7.4-7.4,14.8-14.9,22.2-22.3c0.8-0.9,1.6-1.8,2.3-2.7c0.7,0.5,1.5,1,2.2,1.5
		c-0.9,0.4-2,0.6-2.6,1.2c-7.1,7-14.2,14.1-21.2,21.2c-0.5,0.5-0.8,1.3-1.1,2C262.6,65,262,64.7,261.4,64.4z"/>
	<path fill="#0097E3" d="M247.3,27.3c0.4,0.1,0.8,0.1,1.2,0.2c-0.5,0.5-0.9,1.1-1.4,1.6c-27.4,27.4-54.8,54.8-82.2,82.2
		c-0.6,0.6-1.2,1-1.8,1.6c0-0.6,0-1.2,0-1.8c0.6-0.5,1.3-1,1.8-1.6c26.8-26.8,53.6-53.6,80.3-80.3c0.5-0.5,0.9-1.1,1.4-1.6
		C246.9,27.4,247.1,27.4,247.3,27.3z"/>
	<path fill="#009AE6" d="M240.6,27.4c1.2,0,2.5,0,3.7,0c-0.2,0.4-0.3,1-0.6,1.3c-5.9,5.8-11.8,11.4-17.7,17.2
		c-20.1,20-40.1,40.1-60.2,60.1c-0.9,0.9-1.8,1.6-2.7,2.4c-0.4-2.4,0.7-4.1,2.4-5.8c24.3-24.2,48.4-48.4,72.6-72.6
		C239,29.3,239.8,28.3,240.6,27.4z"/>
	<path fill="#0099E4" d="M163.1,108.5c0.9-0.8,1.9-1.6,2.7-2.4C185.9,86.1,205.9,66,226,46c5.8-5.8,11.8-11.5,17.7-17.2
		c0.3-0.3,0.4-0.9,0.6-1.3c0.8,0,1.6,0,2.4,0c-0.5,0.5-0.9,1.1-1.4,1.6c-26.8,26.8-53.6,53.6-80.3,80.3c-0.6,0.6-1.2,1-1.8,1.6
		C163.1,110.2,163.1,109.4,163.1,108.5z"/>
	<path fill="#003A90" d="M252.8,187.3c-0.7,0-1.3-0.1-1.2-0.1c23.3-23.8,47-47.8,71.1-72.4c0.1,1.6,0.1,2.3,0.2,2.9
		c-1.3,1.2-2.5,2.3-3.8,3.5c-15,14.8-30,29.7-45,44.5C267,172.9,259.9,180.1,252.8,187.3z"/>
	<path fill="#003D93" d="M247.3,187.8c-1,0-2,0-3.1,0c2.1-2.4,4.1-5,6.4-7.3c21.8-21.8,43.5-43.6,65.3-65.3c2.4-2.4,5-4.4,7.5-6.6
		c0,1,0,2,0,3c-0.5,0.5-1.1,0.9-1.6,1.4c-24.4,24.4-48.8,48.8-73.3,73.3C248.2,186.7,247.8,187.3,247.3,187.8z"/>
	<path fill="#003F95" d="M323.5,108.6c-2.5,2.2-5.1,4.3-7.5,6.6c-21.8,21.8-43.6,43.5-65.3,65.3c-2.3,2.3-4.3,4.8-6.4,7.3
		c-1.2,0-2.4,0-2.9,0c27-27.4,54.3-55.1,82.2-83.4C323.5,106.5,323.5,107.5,323.5,108.6z"/>
	<path fill="#00469B" d="M275.9,141.2c2.4-3,4.9-5.9,7.3-8.9c0.9-0.8,1.9-1.5,2.8-2.3c11.2-11.2,22.4-22.4,33.6-33.5
		c0.8-0.8,1.6-1.5,2.7-2.5c0.1,1.1,0.1,1.7,0.2,2.4c-0.8,0.7-1.7,1.4-2.5,2.2c-13.8,13.8-27.6,27.6-41.4,41.4
		c-0.8,0.8-1.7,1.5-2.5,2.2C276,141.8,275.9,141.5,275.9,141.2z"/>
</g>
</svg>
