<?xml version="1.0" encoding="utf-8"?>
<!-- Generator: Adobe Illustrator 25.0.1, SVG Export Plug-In . SVG Version: 6.00 Build 0)  -->
<svg version="1.0" id="Layer_1" xmlns="http://www.w3.org/2000/svg" xmlns:xlink="http://www.w3.org/1999/xlink" x="0px" y="0px"
	 viewBox="0 0 500 350" style="enable-background:new 0 0 500 350;" xml:space="preserve">
<style type="text/css">
	.st0{fill:#002F86;}
	.st1{fill:#00A9F3;}
	.st2{fill:#002F87;}
	.st3{fill:#0096E2;}
	.st4{fill:#009DE8;}
	.st5{fill:#009EE9;}
	.st6{fill:#009FEA;}
	.st7{fill:#68C2EE;}
	.st8{fill:#67CAF6;}
	.st9{fill:#ADE2F9;}
	.st10{fill:#A7E0F9;}
	.st11{fill:#ABDCF4;}
	.st12{fill:#ABDDF6;}
	.st13{fill:#0093DF;}
	.st14{fill:#004398;}
	.st15{fill:#00388F;}
	.st16{fill:#003B92;}
	.st17{fill:#004499;}
	.st18{fill:#004196;}
	.st19{fill:#00499D;}
	.st20{fill:#0090DD;}
	.st21{fill:#00459A;}
	.st22{fill:#003189;}
	.st23{fill:#00338A;}
	.st24{fill:#00A8F2;}
	.st25{fill:#00A4EE;}
	.st26{fill:#00489D;}
	.st27{fill:#00A5EF;}
	.st28{fill:#006EBE;}
	.st29{fill:#00358C;}
	.st30{fill:#00368C;}
	.st31{fill:#004A9F;}
	.st32{fill:#00A0EB;}
	.st33{fill:#008EDB;}
	.st34{fill:#0053A7;}
	.st35{fill:#004BA0;}
	.st36{fill:#00A1EC;}
	.st37{fill:#0087D5;}
	.st38{fill:#00378D;}
	.st39{fill:#00A2ED;}
	.st40{fill:#0054A7;}
	.st41{fill:#0051A5;}
	.st42{fill:#0058AB;}
	.st43{fill:#00479C;}
	.st44{fill:#004FA3;}
	.st45{fill:#004DA1;}
	.st46{fill:#0076C6;}
	.st47{fill:#006DBE;}
	.st48{fill:#0070C0;}
	.st49{fill:#0085D3;}
	.st50{fill:#005CAF;}
	.st51{fill:#0056A9;}
	.st52{fill:#008CD9;}
	.st53{fill:#007FCE;}
	.st54{fill:#005AAD;}
	.st55{fill:#007DCC;}
	.st56{fill:#00A6F0;}
	.st57{fill:#0067B9;}
	.st58{fill:#005DAF;}
	.st59{fill:#0074C4;}
	.st60{fill:#0089D7;}
	.st61{fill:#0079C8;}
	.st62{fill:#0060B2;}
	.st63{fill:#0065B7;}
	.st64{fill:#0066B7;}
	.st65{fill:#0072C2;}
	.st66{fill:#006BBC;}
	.st67{fill:#0083D1;}
	.st68{fill:#0081CF;}
	.st69{fill:#008BD8;}
	.st70{fill:#0062B4;}
	.st71{fill:#004CA0;}
	.st72{fill:#005EB0;}
	.st73{fill:#0069BA;}
	.st74{fill:#005EB1;}
	.st75{fill:#008DDA;}
	.st76{fill:#007AC9;}
	.st77{fill:#007BCA;}
	.st78{fill:#0064B5;}
	.st79{fill:#0164B5;}
	.st80{fill:#0097E3;}
	.st81{fill:#009AE6;}
	.st82{fill:#0099E4;}
	.st83{fill:#003A90;}
	.st84{fill:#003D93;}
	.st85{fill:#003F95;}
	.st86{fill:#00469B;}
</style>
<g>
	<path class="st0" d="M491.8,162.7c0.4,2.9,0.9,6.7,1.3,9.6c-4,12.8-20.6,17.8-29.8,6.9c-13.7-15.2-27-30.6-40.7-45.8
		c-13.8,15.4-27.1,30.8-40.9,46.1c-6.3,7.1-16.7,7.6-23.8,1.5c-7.1-6.1-8.1-16.4-1.8-23.7c12.4-14.4,25.1-28.5,37.7-42.7
		c6.6-5.8,6.8-7.6,0.2-13.5c-12.4-14.1-25-28.1-37.3-42.3c-8.8-10-4.4-24.9,8.2-28c6.4-1.6,12.2,0,16.6,5
		c13.8,15.4,27.2,30.9,41.1,46.2c12.8-14.9,26.3-28.6,38.5-43.8c9.5-12.3,27-10.1,31.7,5c0.5,5.4-0.3,10.8-4,15
		c-14.4,16.6-29.1,32.9-43.6,49.5C460.6,126.5,479.1,142.4,491.8,162.7z"/>
	<path class="st1" d="M92.9,26.8c67.7,9.1,40.6,53.2,16.8,40.5C81.4,51,45.9,67.5,40,99.7c-7.6,38.2,37.2,68.8,70.1,48.3
		c19.7-11.1,36,18.1,17.1,29.2c-47.7,29.8-115.2-3-121-59C-2.5,68.8,43.6,22.6,92.9,26.8z"/>
	<path class="st0" d="M299.2,306c-14.2-15.9-27.5-31.3-41.2-47.5V305h-11c0,0,0-46.1,0-69.1c2.1-0.7,3.6,0,5.2,1.7
		c13.3,15,26.3,30,39.8,44.8c0-15.6,0-30.4,0-45.4c3.8,0,7.2,0,11,0c-0.1,22.9,1,46.2-0.4,69H299.2z"/>
	<path class="st2" d="M104,306c-33.3-5.7-22.3-45.4-24-70c3.7,0,11,0,11,0s-0.2,29.3,0.1,43.5c0.1,7.2,3.2,12.9,10.3,15.4
		c11.1,4.9,24.8-3.4,23.9-16.1c0-14,0-41.9,0-41.9s7.2,0,10.9,0c-1.6,24.6,9.1,65-24.9,69C108.9,306,106.5,306,104,306z"/>
	<path class="st0" d="M403.6,306.3c-7.6-2.6-14.6-5.3-19.3-12.5c2.6-1.9,5-3.8,7.2-5.5c15.7,16.6,38.2,4,24.7-8.5
		c-7.9-4.7-17.2-7.5-24.3-13.7c-21-24.3,22.1-42.9,36.7-20.2c-2.5,1.9-4.9,3.7-7.4,5.7c-9.2-12.8-33.5-3.9-19.7,8.7
		c7.1,3.9,14.7,6.9,21.5,11.3C442.6,286.7,424.7,309.3,403.6,306.3z"/>
	<path class="st0" d="M461.5,306.3c-7.6-2.6-14.6-5.3-19.4-12.5c2.5-1.9,5-3.8,7.6-5.7c12,16,38.5,5.9,24.5-8.1
		c-7.6-4.6-16.4-7.4-23.4-12.8c-23.5-24.3,20.9-44.5,35.6-21.1c-2.4,1.8-4.8,3.6-7.3,5.6c-9-12.3-33.1-4.4-20.2,8.4
		c7.2,4,15,7.1,22,11.7C500.6,286.6,482.5,309.5,461.5,306.3z"/>
	<path class="st0" d="M171,306.3c-8.1-2.2-14.2-6.2-20.5-12.1c3.2-2.4,5.6-4.2,8.2-6.2c6.3,8.4,24.4,13.3,28.1,0.6
		c1.5-15.8-30.3-13.5-32.9-30.5c-5.1-23.2,30-30.2,41.7-12.2c-2.5,1.9-4.9,3.7-7.5,5.7c-8.9-12.3-33.2-4.4-20.1,8.5
		c7.3,4.1,15.3,7.2,22.3,11.8C209.2,286.6,191.4,309.4,171,306.3z"/>
	<path class="st3" d="M251.6,27c0.4,1.1,0.4,1.1,0.8,2.2c-30.2,26.1-56.9,56.9-86,84.4c-1.8,1.8-3.2,3.6-2.8,6.3
		c-0.2-2.3-0.7-4.6-0.5-6.9c28.9-28.4,57.7-57.1,86-86.1L251.6,27z"/>
	<path class="st4" d="M163.1,112.8c0,0.5-0.1,1-0.1,1.4c0-4.3,0-8.7,0-13c24.7-24.6,50.5-48.8,73.9-74.5c1.2,0,2.4,0.7,3.6,0.7
		c-24.7,25.4-50.1,50.2-75.1,75.3C162.2,105.3,163.2,109.2,163.1,112.8z"/>
	<path class="st5" d="M236.9,27c-23.4,25.6-49.2,49.9-73.9,74.5C183.3,75,212.4,52.5,235.1,27C235.7,27,236.3,27,236.9,27z"/>
	<path class="st6" d="M234.7,26.8c-23.5,24.1-47.3,47.9-71.4,71.4c20.5-24.8,46-45.7,67.7-69.6c0-0.2,0-0.4,0-0.5
		C232.2,27.7,233.4,26.8,234.7,26.8z"/>
	<path class="st7" d="M240.6,27.7c-0.4-0.1-0.8-0.1-1.2-0.2c0-0.2,0-0.4,0-0.5c2.6,0,5.3,0,7.9,0c0,0.2,0,0.4,0,0.5
		C245.1,27.9,242.8,27.6,240.6,27.7z"/>
	<path class="st8" d="M89.8,27c-2.5,0.2-4.9,0.3-7.4,0.5c0-0.2,0-0.3,0.1-0.5C85,27,87.4,27,89.8,27z"/>
	<path class="st9" d="M5,104.9c0,2,0,4.1,0,6.1C5,109,5,106.9,5,104.9z"/>
	<path class="st10" d="M82.5,27c0,0.2,0,0.3-0.1,0.5c-0.8-0.2-1.6-0.3-2.4-0.5C80.9,27,81.7,27,82.5,27z"/>
	<path class="st11" d="M247.3,27.5c0-0.2,0-0.4,0-0.5c0.6,0,1.2,0,1.8,0c-0.2,0.2-0.4,0.5-0.6,0.7C248.1,27.7,247.7,27.6,247.3,27.5
		z"/>
	<path class="st12" d="M239.4,27c0,0.2,0,0.4,0,0.5c-0.6-0.2-1.2-0.4-1.8-0.5C238.2,27,238.8,27,239.4,27z"/>
	<path class="st0" d="M55.5,267.2c18.2,8.4,14.7,35.7-5.5,37.2c-9.4,0.7-18.9,0.5-28.3,0.6c-5.6,0.1-5.6,0-5.6-5.6
		c0-20.8,0-41.6,0-62.4c8.3-0.9,16.7-0.2,25-0.3C57.9,236.2,66.6,255.8,55.5,267.2z M27,295.3c10.1-1.1,28,4.8,29.5-9.5
		c1-16.6-19-10.4-29.5-11.3C27,281.4,27,288.3,27,295.3z M27,264.8c7.9-0.4,21.6,2.7,22.5-8.3c0.8-13.3-13.9-9.6-22.5-10.6
		C27,252.4,27,258.4,27,264.8z"/>
	<path class="st2" d="M323,305c0-23.4,0-46.2,0-68c14.9,0,29.9,0,45,0c0,2.8,0,5.8,0,9c-11.3,0-22.7,0-34,0c0,6.1,0,11.9,0,18
		c8.3,0,16.5,0,25,0c0,3.2,0,5.7,0,9c-8.1,0-16.5,0-25,0c0,7.4,0,14.5,0,22c11.5,0,23.2,0,35,0c0,3.5,0,6.6,0,10
		C353.8,305,338.7,305,323,305z"/>
	<path class="st2" d="M214.3,237c3.8,0,7.2,0,10.7,0c0,22.6,0,45.2,0,68.2c-3.4-0.6-8.5,1.6-10.6-1.5
		C214.1,281.5,214.4,259.3,214.3,237z"/>
	<path class="st13" d="M163.6,119.7c-0.4-2.7,1-4.5,2.8-6.3c29.5-28,56.5-59.2,87.2-85.5c1.2,0.2,2.5,0.4,3.7,0.6
		c-13.7,11-25.2,25-38.1,37.1c-0.4,0.4-0.3,1.4-0.5,2.1C212,72.2,206.5,78,202.2,85c-1.5-1.8-2.3-0.1-3.1,0.7
		c-11.8,11.7-23.5,23.5-35.4,35.1C163.7,120.4,163.7,120.1,163.6,119.7z"/>
	<path class="st2" d="M316.9,140.3c-8.6,19.3-22.7,33.1-42.1,41.4c12.6-14.9,27.8-28.2,41.6-42.3
		C316.5,139.8,316.7,140.1,316.9,140.3z"/>
	<path class="st14" d="M323.1,100c0.2,0.8,0.3,1.7,0.5,2.5c-28.7,28.2-57.3,56.7-85.4,85.5c-0.6,0-1.2-0.1-1.8-0.1
		c-0.2-0.2-0.4-0.4-0.6-0.6C264.5,157.9,293.7,128.7,323.1,100z"/>
	<path class="st1" d="M169.7,75c7.6-18.3,22.8-33.3,41-40.9C197.3,47.9,183.7,61.8,169.7,75z"/>
	<path class="st15" d="M258.4,186.7c-1.9,0.3-3.7,0.7-5.6,0.5c23.2-23.4,46.5-46.7,70.1-69.6l0.2,0.2c-0.3,1.2-0.5,2.4-0.8,3.5
		c-21.9,21.3-43.5,43-64.8,64.8C257.8,186.4,258.1,186.5,258.4,186.7z"/>
	<path class="st16" d="M252.8,187.3c0.6,0,1.3,0,1.9,0.1c-2.5,0.1-5,0.8-7.4,0.5c25.1-25.7,50.6-51.1,76.2-76.3l0.2,0.1
		c-0.2,2-0.4,4.1-0.6,6.1c0,0-0.2-0.2-0.2-0.2c0-0.7-0.1-1.3-0.2-2.9c-24.2,24.6-47.8,48.7-71.1,72.4
		C251.5,187.2,252.1,187.2,252.8,187.3z"/>
	<path class="st17" d="M323.1,100c-29.4,28.7-58.5,58-87.4,87.3c-0.7-0.1-1.3-0.1-2.4-0.2c29.8-29.9,59.5-60.1,89.7-89.5
		C323.1,98.4,323.1,99.2,323.1,100z"/>
	<path class="st18" d="M247.3,187.8c0.3,0,0.5,0.1,0.8,0.1c-3.3,0-6.7,0-10,0c28.1-28.8,56.7-57.3,85.4-85.5c0,3.1,0.1,6.2,0.1,9.2
		c0,0-0.2-0.1-0.2-0.1c0-2.8,0-3.8,0-7.2c-27.9,28.3-55.2,56.1-82.2,83.4C242.7,187.9,245.7,187.8,247.3,187.8z"/>
	<path class="st19" d="M230.8,187.2c-2-0.4-4.1-0.8-6.1-1.2c10-10.6,20.6-20.7,30.8-31.1c2.5-3.9,7.4-4.6,11.3-6.7
		c-11.2,13.4-25.4,25.1-36.8,38.5C229.9,186.6,230.3,186.9,230.8,187.2z"/>
	<path class="st20" d="M218.8,67.7c0.1-0.7,0-1.7,0.5-2.1c12.9-12.1,24.4-26.1,38.1-37.1c1.2,0.2,2.4,0.4,3.6,0.7
		c-10.5,9.6-20.3,20.2-30.5,30.1c-0.9,1.3-3.7,2.4-2.6,4.1C224.8,64.8,221.8,66.3,218.8,67.7z"/>
	<path class="st20" d="M163.7,120.8c11.9-11.6,23.6-23.4,35.4-35.1c0.8-0.8,1.6-2.5,3.1-0.7c-1,2.2-2.1,4.4-3.1,6.6
		c-12.1,10.1-24.1,22.2-34.3,34.3C164.5,124.2,164.1,122.5,163.7,120.8z"/>
	<path class="st21" d="M323.1,97.2c-30.3,29.4-59.9,59.6-89.7,89.5c1.1,0.1,1.7,0.1,2.4,0.2c0.2,0.2,0.4,0.4,0.6,0.6
		c-1.4-0.2-2.9-0.3-4.3-0.5c27.9-31.7,60.6-60.6,90.4-91c0.2,0,0.4,0,0.6,0C323,96.4,323,96.8,323.1,97.2z"/>
	<path class="st22" d="M316.9,140.3c-0.2-0.3-0.4-0.6-0.6-0.8c-13.8,14.1-28.9,27.4-41.6,42.3c-1.7,0.6-3.5,1.3-5.2,1.9
		c14.6-17.5,33.3-33.9,50.1-50.1C318.7,135.9,317.8,138.1,316.9,140.3z"/>
	<path class="st23" d="M319.6,133.6c-16.8,16.1-35.5,32.5-50.1,50.1c-1.2,0.4-2.5,0.8-3.7,1.2c16.4-19.3,36-36.8,54-54.8
		C320.1,131.7,320,132.3,319.6,133.6z"/>
	<path class="st24" d="M169.7,75c16.3-13.1,28.6-32.8,46.5-43.2c-16,16.4-32.3,32.7-48.8,48.7C168.2,78.6,168.9,76.8,169.7,75z"/>
	<path class="st25" d="M164.7,89.6c0.3-1,0.5-2,0.8-3c18.8-19,38.7-37,56.7-56.7c1-0.2,2-0.5,3.1-0.7
		C205.4,49.5,185.4,70.1,164.7,89.6z"/>
	<path class="st26" d="M323,96c-0.2,0-0.4,0-0.6,0c-0.1-0.7-0.1-1.3-0.2-2.4c-13.3,12.5-25.4,26.2-39,38.4c1.9-3.4,2.9-7.2,6.3-9.4
		c11.2-10.1,20.7-22.8,32.8-31.4C322.5,92.7,322.7,94.4,323,96z"/>
	<path class="st27" d="M222.3,29.9c-18.1,19.7-37.9,37.7-56.7,56.7c0.3-1.2,0.7-2.5,1-3.7c17.9-16.6,35-34.4,52.1-51.8
		C219.8,30.7,221.1,30.3,222.3,29.9z"/>
	<path class="st28" d="M298,48.7c0.8,0.8,1.7,1.6,2.5,2.4c-8,7.8-15.9,15.8-24.2,23.3c-0.7-0.7-1.5-1.3-2.2-2
		C281.1,64,289.4,55.6,298,48.7z"/>
	<path class="st29" d="M320,132c0-0.5-0.1-1-0.2-1.9c-18.1,18-37.6,35.5-54,54.8c-0.8,0.2-1.6,0.4-2.3,0.6c-1-0.9-1-0.9,0.4-2.3
		c11.1-11,22.3-21.9,33.4-32.8c8.2-7.2,14.9-16.7,24-22.7C320.8,129.1,320.4,130.6,320,132z"/>
	<path class="st30" d="M321.3,127.7c-9.1,6-15.8,15.5-24,22.7c-11.1,11-22.3,21.9-33.4,32.8c-1.4,1.4-1.4,1.4-0.4,2.3
		c-0.8,0.2-1.6,0.4-2.5,0.6c-2.2-1.4,0.2-2,0.7-2.5c19.8-19.8,39.4-39.8,59.4-59.4c0.2,0.3,0.5,0.7,0.7,1
		C321.7,126.1,321.5,126.9,321.3,127.7z"/>
	<path class="st31" d="M322.3,91.4c-13.1,9.2-22.9,23.3-35.4,33.6c0.6-1.8,1.1-3.7,1.7-5.5c11.6-9.8,21.3-21.7,32.7-31.7
		C321.6,89,322,90.2,322.3,91.4z"/>
	<path class="st32" d="M231.4,28.6c-21.8,24.3-48.5,45.1-68.3,70.8c0.2-1.6,0.4-3.3,0.6-4.9C186.9,73.3,207.3,48.4,231.4,28.6z"/>
	<path class="st33" d="M164.8,125.9c10.3-12.1,22.2-24.2,34.3-34.3c-0.4,1.4-0.9,2.8-1.3,4.2c-11,10.6-22,21.4-32.4,32.6
		C165.2,127.5,165,126.7,164.8,125.9z"/>
	<path class="st34" d="M317.4,76.2c0.4,1,0.8,2,1.2,3.1c-9.8,6.2-16.9,16.6-25.8,24.3c-2.7,2.2-1.9,5.2-2.8,8.1
		c-0.1-3.2-0.2-6.4-0.3-9.7C299.7,94.3,306.9,82.8,317.4,76.2z"/>
	<path class="st35" d="M257.6,152.4c-10.3,11.8-22.4,22.1-32.9,33.7c-0.8-0.2-1.6-0.4-2.4-0.6c9-11.5,21.1-20.6,30.5-31.8
		C254.4,153.2,256,152.8,257.6,152.4z"/>
	<path class="st36" d="M231,28c0.1,0.2,0.1,0.2,0.2,0.4c-24.2,19.9-44.7,44.8-67.9,66.1c0.2-0.8,0.3-1.6,0.5-2.4
		c21.9-20.6,42.3-42.8,64.2-63.5C229,28.4,230,28.2,231,28z"/>
	<path class="st37" d="M168.6,137.9c-0.4-1.2-0.9-2.4-1.3-3.6c9.9-9,19.1-18.8,28.8-28.1c0,1.4,0,2.8,0,4.3
		C186.6,119.3,177.7,128.6,168.6,137.9z"/>
	<path class="st38" d="M321.9,125.3c-0.2-0.3-0.5-0.7-0.7-1c-20,19.6-39.6,39.6-59.4,59.4c-0.5,0.5-2.9,1-0.7,2.5
		c-0.9,0.2-1.7,0.4-2.6,0.6c-0.3-0.2-0.6-0.4-0.9-0.5c21.4-21.8,43-43.5,64.8-64.8C322.2,122.7,322,124,321.9,125.3z"/>
	<path class="st37" d="M271.3,32.2c1,0.4,2,0.8,3,1.2c-10.2,6.3-17.5,17-26.5,25c-0.6,0.6-0.7,1.6-1,2.5c-1.7,0.1-2.9-0.5-4.8-1
		C252.1,51,260.2,39.1,271.3,32.2z"/>
	<path class="st39" d="M228.4,28.6c-21.8,20.7-42.3,42.9-64.2,63.5c0.2-0.8,0.3-1.6,0.5-2.5c20.7-19.5,40.7-40.1,60.6-60.4
		C226.4,29,227.4,28.8,228.4,28.6z"/>
	<path class="st40" d="M213.6,182.6c-0.8-0.3-1.6-0.7-2.3-1c8-9.7,17.6-18.2,26.2-27.3c3.1,0,6.1,0.1,9.2,0.1c-2.9,1-5.9-0.2-7.9,3
		C230.6,166,221.9,174.1,213.6,182.6z"/>
	<path class="st41" d="M213.6,182.6c6.6-6.6,13.3-13.3,19.9-19.9c3.8-2.7,6.1-8.7,11.3-7.8c-9.4,9.6-18.7,19.1-28.1,28.7
		C215.7,183.3,214.7,183,213.6,182.6z"/>
	<path class="st42" d="M314.5,70.1c0.4,0.8,0.8,1.6,1.2,2.5c-8.8,8.8-17.5,17.5-26.3,26.3c-0.2-0.9-0.5-1.9-0.7-2.8
		C297.3,87.3,305.9,78.7,314.5,70.1z"/>
	<path class="st42" d="M209.4,180.7c-1.2-0.6-2.5-1.2-3.7-1.7c5.4-4.9,22.7-26.5,28.3-25.3c0,0,0.3,0,0.3,0l0.2,0.1
		C226.8,163.2,215.7,170.3,209.4,180.7z"/>
	<path class="st43" d="M276,142.1c-14.1,15.4-31.5,28.8-44,45.3c-0.5,0.1-2.1-0.6-2-0.7c14.9-15.4,29.3-32.1,45.9-45.5
		C275.9,141.5,276,141.8,276,142.1z"/>
	<path class="st44" d="M290.1,111.6c0.2-0.8,0.4-1.6,0.6-2.4c9.8-9.1,19.1-18.8,28.7-28.1c0.4,1.2,0.8,2.4,1.2,3.7
		c-11.6,7.5-19.7,20.1-30.7,28.6C289.9,112.8,290,112.2,290.1,111.6z"/>
	<path class="st45" d="M252.8,153.6c-9.4,11.2-21.5,20.3-30.5,31.8c-0.6-0.2-1.2-0.4-1.8-0.5c0.2-0.9,0.2-2.2,0.8-2.8
		c9.3-9.3,18.6-18.6,27.9-27.8C250.3,154.1,251.6,153.8,252.8,153.6z"/>
	<path class="st46" d="M289.9,42.1c0.8,0.6,1.6,1.2,2.5,1.8c-9,6.9-16.4,15.9-24.4,24c-0.8-0.5-1.6-1-2.4-1.5
		C272.7,57.7,281.3,49.2,289.9,42.1z"/>
	<path class="st47" d="M186.9,165.2c-0.8-0.8-1.6-1.6-2.4-2.4c7.8-8.1,15.7-16,23.9-23.7c0.8,0.8,1.6,1.7,2.4,2.5
		C202.2,148.3,193.9,156.8,186.9,165.2z"/>
	<path class="st48" d="M208.4,139c-8.2,7.7-16.1,15.7-23.9,23.7c-0.6-0.7-1.3-1.5-1.9-2.2c7.9-8,15.9-15.9,23.8-23.9
		C207.1,137.4,207.7,138.2,208.4,139z"/>
	<path class="st41" d="M319.3,81.1c-9.6,9.3-18.8,19-28.7,28.1c-0.3-2.3,0.5-4,2.2-5.6c8.9-7.7,16-18.1,25.8-24.3
		C318.9,79.9,319.1,80.5,319.3,81.1z"/>
	<path class="st46" d="M179,156.1c-0.4-0.6-0.8-1.2-1.3-1.7c7-8.9,15.7-17.2,24.3-24.5c0.4,0.8,0.9,1.6,1.3,2.4
		C195,140,187.1,148.3,179,156.1z"/>
	<path class="st49" d="M247.1,60.9c0.3-0.8,0.5-1.9,1-2.4c9.2-8.2,16.7-19.2,27.3-25.5c0.5,0.7,0.4,0.5,0.9,1.1
		C267.7,43,259,52,250.5,60.8c0.2,0,0.9,0.1,1.5,0.1c0,0.2,0,0.4,0,0.6C250.4,61.3,248.7,61.1,247.1,60.9z"/>
	<path class="st50" d="M203.3,177.6c-0.8-0.5-1.6-0.9-2.4-1.4c7.5-9,16.5-16.9,25-24.9c1,0.4,2.1,0.8,3.1,1.2
		C219.6,159.7,212.1,169.4,203.3,177.6z"/>
	<path class="st49" d="M168.6,137.9c9.1-9.2,18-18.6,27.4-27.5c0.3,1,0.6,2,0.6,3c-9,9-18.3,17.7-26.9,27.1
		C169.3,139.6,168.9,138.7,168.6,137.9z"/>
	<path class="st44" d="M249.1,154.3c-9.3,9.3-18.6,18.5-27.9,27.8c-0.6,0.6-0.5,1.8-0.8,2.8c-1.2-0.4-2.4-0.8-3.7-1.2
		C225.1,177.1,240.4,154.9,249.1,154.3z"/>
	<path class="st51" d="M289.4,98.8c8.8-8.8,17.5-17.5,26.3-26.3c0.6,1.2,1.2,2.4,1.8,3.7c-10.6,6.6-17.8,18.1-27.7,25.7
		C289.6,100.9,289.5,99.8,289.4,98.8z"/>
	<path class="st52" d="M165.4,128.3c10.4-11.2,21.4-22,32.4-32.6c-0.4,1.7-0.7,3.4-1.1,5.1c-11.4,8.2-20.5,20-30.7,29.9
		C165.8,129.9,165.6,129.1,165.4,128.3z"/>
	<path class="st51" d="M209.4,180.7c6.2-10.4,17.4-17.5,25.1-26.9c1,0.2,2,0.4,3.1,0.5c-8.7,9.2-18.2,17.6-26.2,27.3
		C210.7,181.3,210.1,181,209.4,180.7z"/>
	<path class="st53" d="M173.4,147.8c-0.6-1.1-1.2-2.1-1.8-3.2c8.9-8.3,16.8-18.3,26.2-25.7c0.2,1,0.5,2,0.7,3
		c-8.8,6.4-15.8,15.5-23.8,22.9C174,145.6,173.8,146.8,173.4,147.8z"/>
	<path class="st54" d="M203.3,177.6c8.7-8.2,16.3-17.9,25.8-25.1c1.6,0.4,3.3,0.8,4.9,1.2c-5.6-1.2-22.8,20.4-28.3,25.3
		C204.9,178.5,204.1,178,203.3,177.6z"/>
	<path class="st55" d="M283,37.7c0.7,0.4,1.5,0.9,2.2,1.3c-8.7,6.4-15.7,15.4-23.7,22.8c-0.5,0.5-0.5,1.5-0.8,2.3
		c-1.2-0.4-2.4-0.8-3.7-1.2C265.4,54.4,273.5,44.7,283,37.7z"/>
	<path class="st53" d="M283,37.7c-9.5,7.1-17.6,16.7-25.9,25.2c-1-0.3-2-0.5-3-0.8c9.1-8.4,16.6-18.6,26.9-25.5
		C281.6,36.9,282.3,37.3,283,37.7z"/>
	<path class="st56" d="M218.6,31.1c-17.1,17.4-34.2,35.2-52.1,51.8c14.5-18.3,33.8-33.5,49.6-51.1C217,31.5,217.8,31.3,218.6,31.1z"
		/>
	<path class="st57" d="M191.8,169.6c-0.6-0.6-1.3-1.1-1.9-1.7c7.2-8.6,15.9-15.9,23.8-23.9c0.7,0.6,1.4,1.1,2.2,1.7
		C207.8,153.7,199.8,161.6,191.8,169.6z"/>
	<path class="st54" d="M314.5,70.1c-8.6,8.6-17.2,17.3-25.8,25.9c-0.2-0.7-0.3-1.3-0.5-2c0.4-1,0.7-2.2,1.4-2.9
		c8.1-7.4,15-16.7,23.9-22.9C313.8,68.8,314.2,69.4,314.5,70.1z"/>
	<path class="st58" d="M313.5,68.2c-8.9,6.3-15.8,15.5-23.9,22.9c-0.7,0.7-0.9,1.9-1.4,2.9c-0.4-1.2-0.8-2.4-1.2-3.6
		c8-8.3,16-17.6,25.2-24.6C312.5,66.6,313,67.4,313.5,68.2z"/>
	<path class="st55" d="M173.4,147.8c0.4-1,0.6-2.2,1.4-2.9c8-7.4,15-16.5,23.8-22.9c0.4,1,0.8,2,1.2,3.1c-0.9,0.4-2,0.6-2.7,1.2
		c-7.3,7.9-16.2,14.7-22.4,23.4C174.2,149,173.8,148.4,173.4,147.8z"/>
	<path class="st59" d="M179,156.1c8.2-7.9,16-16.1,24.4-23.8c0.6,0.8,1.1,1.6,1.7,2.4c-8.8,6.8-16,16.1-24.3,23.7
		C180.2,157.7,179.6,156.9,179,156.1z"/>
	<path class="st60" d="M271.3,32.2c-11,6.9-19.2,18.8-29.3,27.7c1.4,0.4,2.5,0.7,3.5,1c-2.4,0-4.4,0.3-6.5-1
		c9.1-9.1,18.1-18.2,27.2-27.1c0.7-0.7,2.2-0.8,3.3-1.1C270.1,31.8,270.7,32,271.3,32.2z"/>
	<path class="st61" d="M289.9,42.1c-8.6,7.2-17.3,15.7-24.3,24.4c-0.8-0.4-1.6-0.8-2.4-1.2c6.2-8.6,15.1-15.4,22.3-23.2
		c0.6-0.6,1.7-0.8,2.6-1.2C288.7,41.2,289.3,41.6,289.9,42.1z"/>
	<path class="st62" d="M199.1,175c-0.6-0.4-1.2-0.9-1.8-1.3c7.3-8.6,15.7-17.4,24.5-24.3c0.8,0.4,1.7,0.8,2.5,1.2
		C215,157.3,207.7,167.2,199.1,175z"/>
	<path class="st62" d="M309.7,62.1c0.4,0.6,0.8,1.2,1.2,1.8c-9.2,6.9-16.6,16-25.1,23.8c-0.2-0.5-0.5-1.1-0.7-1.6
		c6.1-8.7,15.1-15.5,22.4-23.3C307.9,62.4,308.9,62.4,309.7,62.1z"/>
	<path class="st63" d="M191.8,169.6c8-8,16-15.9,24-23.9c1,0.6,1.9,1.3,2.9,1.9c-9.2,6.2-17.4,15.4-24.5,23.9
		C193.4,170.9,192.6,170.2,191.8,169.6z"/>
	<path class="st59" d="M268,67.9c8-8.1,15.4-17.1,24.4-24c0.7,0.6,1.4,1.2,2.1,1.7c-8.7,6.8-17.1,15.3-24,23.9
		C269.7,69,268.8,68.4,268,67.9z"/>
	<path class="st60" d="M196,106.1c-9.5,9.2-18.6,18.8-28.3,27.7c-0.6-0.5-0.4-0.3-0.9-0.9c8.3-10.8,19.6-19.3,28.4-29.7
		c0.4,0.2,0.4,0.2,0.9,0.3V106.1z"/>
	<path class="st64" d="M305.5,56.6c0.5,0.6,1,1.3,1.5,1.9c-8.9,6.7-16.1,16.1-24.3,23.8c-0.4-0.6-0.8-1.2-1.2-1.8
		C288.4,71.9,296.8,63.4,305.5,56.6z"/>
	<path class="st65" d="M180.8,158.5c8.2-7.7,15.5-16.9,24.3-23.7c0.4,0.6,0.9,1.2,1.3,1.8c-7.9,8-15.9,15.9-23.8,23.9
		C182,159.8,181.4,159.2,180.8,158.5z"/>
	<path class="st66" d="M276.4,74.5c8.3-7.6,16.1-15.5,24.2-23.3c0.6,0.6,1.2,1.2,1.8,1.9c-7.9,7.9-15.9,15.8-23.8,23.8
		C277.8,76,277.1,75.2,276.4,74.5z"/>
	<path class="st65" d="M270.5,69.5c6.9-8.6,15.3-17.1,24-23.9c0.5,0.4,1,0.9,1.6,1.3c-8.1,7.8-16,15.8-23.8,23.9
		C271.7,70.4,271.1,70,270.5,69.5z"/>
	<path class="st33" d="M227.8,63.4c-1.1-1.7,1.7-2.8,2.6-4.1c10.2-10,20-20.5,30.5-30.1c0.8,0.2,1.7,0.4,2.5,0.6
		c-11.5,8.9-21,20.6-31.5,30.6c-0.3,0.3-2.6,0.9-0.3,1.9C230.3,62.6,229,63,227.8,63.4z"/>
	<path class="st67" d="M169.7,140.5c8.6-9.4,17.9-18.1,26.9-27.1c0.2,1,0.4,2,0.6,3.1c-9,6.9-16.4,16.1-24.8,24
		c-0.7,0.7-0.9,1.9-1.4,2.8C170.6,142.4,170.1,141.4,169.7,140.5z"/>
	<path class="st66" d="M186.9,165.2c7-8.4,15.2-16.9,23.8-23.7c0.7,0.6,1.3,1.2,2,1.8c-9,6.6-16.3,15.6-24.6,23.1
		C187.7,166,187.3,165.6,186.9,165.2z"/>
	<path class="st67" d="M251.6,60.9c-0.7-0.1-1.3-0.1-1.5-0.1C258.6,52,267.3,43,276,34.1c0.8,0.4,1.5,0.8,2.3,1.2
		C268.7,43,260.6,52.5,251.6,60.9z"/>
	<path class="st68" d="M251.9,61.1c9-8.4,17.2-18,26.8-25.7l2.6,1.2c-10.2,6.9-17.8,17.2-26.9,25.5l-2.4-0.6
		C251.9,61.3,251.9,61.3,251.9,61.1z"/>
	<path class="st69" d="M196,106.1c0-0.9,0-1.7,0-2.6c-0.4-0.2-0.4-0.2-0.9-0.3c-8.8,10.5-20.1,18.9-28.4,29.7
		c-0.2-0.8-0.5-1.5-0.7-2.3c10.2-9.8,19.3-21.7,30.7-29.9c-0.1,3.8-0.1,7.6-0.2,11.4C195.8,110.3,196.1,108.2,196,106.1z"/>
	<path class="st70" d="M221.8,149.4c-8.8,7-17.2,15.7-24.5,24.3c-0.6-0.4-1.2-0.8-1.8-1.2c5.4-8.5,14.6-14.7,21.5-22.2
		c0.9-0.9,2.5-1.1,3.8-1.6C221,149,221.4,149.2,221.8,149.4z"/>
	<path class="st68" d="M171,143.3c0.5-1,0.7-2.1,1.4-2.8c8.3-7.8,15.7-17.1,24.8-24c0.2,0.8,0.4,1.6,0.6,2.4
		c-9.4,7.4-17.3,17.4-26.2,25.7C171.4,144.2,171.2,143.7,171,143.3z"/>
	<path class="st71" d="M321.3,87.7c-11.4,10-21.2,21.9-32.7,31.7c0.3-1,0.5-2,0.8-3c10-9.2,19.3-19.2,29-28.7
		C319,86.8,320.7,85.5,321.3,87.7z"/>
	<path class="st69" d="M269.5,31.6c-1.1,0.4-2.5,0.4-3.3,1.1c-9.1,8.9-18.1,18-27.2,27.1c0.9,0.4,1.6,0.7,2.2,1
		c-2.1,0.2-3.3,0.2-5.6-0.2c10.5-10.3,20-19.9,30-30.2C266.9,30.8,268.2,31.2,269.5,31.6z"/>
	<path class="st45" d="M321.1,87.2c-1.4-1.7-2-0.1-2.7,0.6c-9.7,9.5-19,19.5-29,28.7c0.1-1,0.3-2.1,0.4-3.1
		c11-8.5,19.1-21.2,30.7-28.6C320.7,85.6,320.9,86.4,321.1,87.2z"/>
	<path class="st61" d="M202,129.9c-8.6,7.3-17.3,15.6-24.3,24.5c-0.6-0.8-1.2-1.7-1.8-2.5c8.8-7.5,15.8-17,25-23.8
		C201.3,128.7,201.7,129.3,202,129.9z"/>
	<path class="st72" d="M285.8,87.8c8.5-7.8,15.9-17,25.1-23.8c0.4,0.6,0.8,1.2,1.2,1.8c-9.1,7-17.1,16.3-25.2,24.6
		C286.5,89.5,286.1,88.7,285.8,87.8z"/>
	<path class="st70" d="M309.7,62.1c-0.8,0.2-1.8,0.3-2.3,0.8c-7.3,7.9-16.2,14.6-22.4,23.3c-0.4-0.7-0.8-1.3-1.2-2
		c7.1-9,16-16.4,24-24.6C308.5,60.5,309.1,61.3,309.7,62.1z"/>
	<path class="st52" d="M265.6,30.4c-10,10.4-19.5,19.9-30,30.2c1.2,0.2,1.9,0.3,2.7,0.4c-1.6,0.4-8,1.2-4.1-1.3
		c9.8-10,20.4-19.2,29.5-29.9C264.4,30,265,30.2,265.6,30.4z"/>
	<path class="st57" d="M305.5,56.6c-8.7,6.8-17.1,15.3-24,23.9c-0.4-0.6-0.8-1.2-1.3-1.8c6.8-8.7,15.3-16.9,23.8-23.9
		C304.5,55.4,305,56,305.5,56.6z"/>
	<path class="st48" d="M272.3,70.8c7.8-8.1,15.7-16.1,23.8-23.9c0.6,0.6,1.3,1.2,1.9,1.8c-8.6,6.8-16.9,15.3-23.8,23.8
		C273.5,72,272.9,71.4,272.3,70.8z"/>
	<path class="st73" d="M304,54.9c-8.5,7-17,15.3-23.8,23.9c-0.6-0.7-1.2-1.4-1.8-2c7.9-7.9,15.9-15.8,23.8-23.8
		C302.9,53.6,303.4,54.2,304,54.9z"/>
	<path class="st74" d="M199.1,175c8.6-7.9,15.9-17.7,25.2-24.4c0.6,0.2,1.1,0.5,1.7,0.7c-8.6,8-17.6,15.9-25,24.9
		C200.3,175.8,199.7,175.4,199.1,175z"/>
	<path class="st75" d="M263.8,29.8c-9.1,10.7-19.8,19.9-29.5,29.9c-0.3,0.3-2.6,1-0.2,1.9c-0.8,0.2-1.7,0.4-2.5,0.6
		c-2.4-0.9,0-1.6,0.3-1.9C242.6,50.6,252,37.6,263.8,29.8z"/>
	<path class="st76" d="M200.9,128.1c-9.2,6.8-16.3,16.3-25,23.8c-0.2-0.4-0.4-0.7-0.7-1.1c7.5-8.6,16.1-17.2,25-24.5
		C200.5,126.9,200.7,127.5,200.9,128.1z"/>
	<path class="st77" d="M200.2,126.3c-8.9,7.3-17.5,15.9-25,24.5c-0.2-0.4-0.5-0.7-0.7-1.1c6.3-8.7,15.1-15.5,22.4-23.4
		c0.7-0.6,1.8-0.8,2.7-1.2C199.9,125.4,200.1,125.8,200.2,126.3z"/>
	<path class="st77" d="M260.7,64.1c0.2-0.8,0.3-1.8,0.8-2.3c8-7.4,15-16.5,23.7-22.8c0.2,0.1,0.5,0.3,0.7,0.4
		c-7.7,8.8-16.4,16.7-24.5,25.1C261.1,64.3,260.9,64.2,260.7,64.1z"/>
	<path class="st78" d="M307.9,59.7c-8,8.2-16.9,15.6-24,24.6c-0.4-0.7-0.8-1.3-1.2-2c8.3-7.7,15.5-17.1,24.3-23.8
		C307.3,58.9,307.6,59.3,307.9,59.7z"/>
	<path class="st73" d="M188.2,166.4c8.3-7.6,15.5-16.5,24.6-23.1c0.3,0.2,0.6,0.5,0.9,0.7c-7.8,8-16.5,15.3-23.8,23.9
		C189.3,167.4,188.7,166.9,188.2,166.4z"/>
	<path class="st79" d="M220.6,148.7c-1.3,0.5-2.8,0.7-3.8,1.6c-6.9,7.5-16,13.7-21.5,22.2c-0.4-0.3-0.8-0.7-1.2-1
		c7.1-8.5,15.3-17.7,24.5-23.9C219.3,148,220,148.4,220.6,148.7z"/>
	<path class="st76" d="M261.4,64.4c8.1-8.4,16.8-16.3,24.5-25.1c0.7,0.5,1.5,1,2.2,1.5c-0.9,0.4-2,0.6-2.6,1.2
		c-7.3,7.8-16.1,14.6-22.3,23.2C262.6,65,262,64.7,261.4,64.4z"/>
	<path class="st80" d="M247.3,27.3c0.4,0.1,0.8,0.1,1.2,0.2c-28.3,28.6-56.7,57.2-85.4,85.3c0-0.6,0-1.2,0-1.8
		c28.1-27.5,55.9-55.5,83.6-83.5C246.9,27.4,247.1,27.4,247.3,27.3z"/>
	<path class="st81" d="M240.6,27c1.2,0,2.5,0,3.7,0c-26.4,27.3-54.1,54.2-81.2,81.1c-0.4-2.4,0.7-4.1,2.4-5.8
		C190.5,77.2,215.9,52.4,240.6,27z"/>
	<path class="st82" d="M163.1,108.5c27.1-26.9,54.8-53.8,81.2-81.1c0.8,0,1.6,0,2.4,0c-27.6,28-55.5,56-83.6,83.5
		C163.1,110.2,163.1,109.4,163.1,108.5z"/>
	<path class="st83" d="M252.8,187.3c-0.7,0-1.3-0.1-1.2-0.1c23.3-23.8,47-47.8,71.1-72.4c0.1,1.6,0.1,2.3,0.2,2.9
		C299.3,140.6,276,163.9,252.8,187.3z"/>
	<path class="st84" d="M247.3,187.8c-1,0-2,0-3.1,0c25.6-27.2,52.1-53.7,79.3-79.3c0,1,0,2,0,3C298,136.8,272.5,162.2,247.3,187.8z"
		/>
	<path class="st85" d="M324,108.7c-27.1,25.6-53.7,52.1-79.3,79.3c-1.2,0-2.4,0-2.9,0c27-27.4,54.3-55.1,82.2-83.4
		C324,106.6,324,107.7,324,108.7z"/>
	<path class="st86" d="M275.9,141.2c14.2-16.9,30.8-31.5,46.3-47.3c0.1,1.1,0.1,1.7,0.2,2.4c-15.9,14.8-30.5,31-46.4,45.8
		C276,141.8,275.9,141.5,275.9,141.2z"/>
</g>
</svg>
