<?xml version="1.0" encoding="utf-8"?>
<!-- Generator: Adobe Illustrator 25.0.1, SVG Export Plug-In . SVG Version: 6.00 Build 0)  -->
<svg version="1.0" id="Layer_1" xmlns="http://www.w3.org/2000/svg" xmlns:xlink="http://www.w3.org/1999/xlink" x="0px" y="0px"
	 viewBox="0 0 221 93" style="enable-background:new 0 0 221 93;" xml:space="preserve">
<style type="text/css">
	.st0{fill:#005E85;}
	.st1{fill:#00B2E3;}
	.st2{fill:#F88D2B;}
</style>
<path class="st0" d="M-46.4,50c-5.4,0-12.4,0-27.9,0h-48v-70.2h56.5c9.5-0.2,19.1,0.7,28.4,2.7h0.8C-20.2-13.9-8.6,0.7-8.8,17.4
	c0,20.4-12.6,31.2-37.7,32.4 M-122.3-116.4H-64c14.9,0,29,0,37.7,6.6c6,4.6,9.3,11.8,9,19.3c0.3,8-3,15.8-9.1,21
	c-9.4,7.8-25,7.8-41.6,7.8h-54.2V-116.4z M108.2-158.4H68L15.1-34.7c-3-2.7-6.2-5.1-9.6-7.2C20.7-53.1,29.2-71.1,28.4-90
	c0.3-19.2-7.8-37.5-22.1-50.3c-20.8-17.9-47.4-17.9-65-17.9H-167V-22l-61.5-136.2h-40.2L-376,92.9h51.3L-248.6-90l80.7,182.9h81.1
	c37.6,0,46.2,0,58.4-1.7c30.6-4.9,46.7-20.4,55.1-36.3l0,0l0,0c0.9-1.8,1.8-3.7,2.6-5.5L36,34.4L87.6-89.6l80.7,182.9h52.4
	L108.2-158.4z"/>
<polygon class="st1" points="-197.8,32.2 -259.1,-3 -259.1,67.5 "/>
<polygon class="st2" points="138.8,32.2 78.3,-3 78.3,67.3 "/>
<path class="st0" d="M163.3-128.8c-5.4,5.4-14.1,5.4-19.4,0c-2.6-2.6-4-6.1-4-9.7c0-7.6,6.1-13.7,13.7-13.7l0,0
	c7.6,0,13.7,6.2,13.7,13.8C167.3-134.8,165.8-131.4,163.3-128.8 M145.3-146.8c-4.6,4.6-4.6,12.1,0,16.7c2.2,2.3,5.2,3.6,8.3,3.5
	c6.6,0.1,12-5.2,12.1-11.7c0.1-6.6-5.2-12-11.7-12.1C150.7-150.5,147.6-149.2,145.3-146.8 M153.3-146.1c1.4-0.1,2.8,0.1,4.1,0.5
	c1.5,0.6,2.5,2.2,2.3,3.8c0.1,1.2-0.5,2.3-1.5,3c-0.7,0.4-1.4,0.6-2.2,0.7c1,0.1,2,0.6,2.6,1.5c0.5,0.7,0.8,1.5,0.9,2.4v2.2
	c0,0.3,0,0.5,0,0.8l0,0h-2v-1.8c0.2-1.3-0.3-2.6-1.4-3.4c-0.9-0.4-2-0.6-3-0.5h-2.2v5.9h-2.6v-15.2L153.3-146.1z M156.2-143.7
	c-1-0.4-2.1-0.6-3.2-0.5h-2.1v5.4h2.4c0.8,0.1,1.7,0.1,2.5,0c1-0.3,1.6-1.3,1.5-2.4c0.1-0.9-0.3-1.7-1-2.2"/>
</svg>
