<svg xmlns="http://www.w3.org/2000/svg" viewBox="0 0 655 197.47"><defs><style>.a{fill:#f90;}.a,.b{fill-rule:evenodd;}.b{fill:#221f1f;}</style></defs><path class="a" d="M535,431c-38,28-93.24,43-140.75,43-66.6,0-126.57-24.63-171.93-65.61-3.56-3.22-.37-7.61,3.9-5.1,49,28.49,109.49,45.62,172,45.62a342.12,342.12,0,0,0,131.21-26.83c6.45-2.74,11.83,4.22,5.53,8.89m15.84-18.1c-4.85-6.22-32.09-2.94-44.42-1.48-3.74.46-4.31-2.8-.95-5.14,21.75-15.31,57.45-10.89,61.62-5.76s-1.08,40.94-21.52,58c-3.15,2.62-6.13,1.23-4.74-2.25,4.59-11.46,14.89-37.16,10-43.4" transform="translate(-128.61 -276.6)"/><path class="b" d="M507.25,298.22V283.34a3.67,3.67,0,0,1,3.56-3.77h66.83a3.71,3.71,0,0,1,3.85,3.77v12.74c0,2.13-1.83,4.93-5,9.35L542,354.73c12.83-.31,26.37,1.6,38,8.16a6.92,6.92,0,0,1,3.54,5.79v15.88c0,2.16-2.4,4.71-4.91,3.4-20.51-10.75-47.74-11.93-70.4.11-2.31,1.25-4.74-1.26-4.74-3.42V369.56c0-2.42,0-6.55,2.45-10.24l40-57.36H511.16a3.7,3.7,0,0,1-3.86-3.74M264.17,391.09H243.9a3.83,3.83,0,0,1-3.62-3.45v-104a3.8,3.8,0,0,1,3.9-3.73h18.91a3.84,3.84,0,0,1,3.68,3.47v13.6h.37c4.93-13.15,14.2-19.28,26.69-19.28,12.69,0,20.61,6.13,26.32,19.28,4.91-13.15,16.05-19.28,28-19.28,8.5,0,17.79,3.51,23.46,11.38,6.42,8.75,5.11,21.47,5.11,32.62l0,65.68a3.83,3.83,0,0,1-3.91,3.76h-20.3a3.89,3.89,0,0,1-3.65-3.76V332.11c0-4.39.39-15.34-.57-19.5-1.51-7-6.05-9-11.92-9a13.45,13.45,0,0,0-12.12,8.53c-2.09,5.25-1.88,14-1.88,19.93v55.16a3.83,3.83,0,0,1-3.91,3.76h-20.3a3.83,3.83,0,0,1-3.65-3.76l0-55.16c0-11.6,1.92-28.69-12.49-28.69-14.57,0-14,16.65-14,28.69v55.16a3.83,3.83,0,0,1-3.9,3.76M638.86,277.74c30.08,0,46.37,25.83,46.37,58.68,0,31.73-18,56.91-46.37,56.91-29.47,0-45.62-25.84-45.62-58,0-32.39,16.28-57.64,45.62-57.64M639,298.9c-14.93,0-15.88,20.36-15.88,33.05s-.2,39.86,15.71,39.86c15.7,0,16.45-21.9,16.45-35.24,0-8.78-.37-19.28-3-27.61C650,301.72,645.48,298.9,639,298.9m85.2,92.19H704.05a3.9,3.9,0,0,1-3.65-3.76l0-104.08a3.83,3.83,0,0,1,3.9-3.39h18.8a3.88,3.88,0,0,1,3.62,2.91v15.92h.38c5.67-14.23,13.62-21,27.63-21,9.17,0,18,3.28,23.66,12.27,5.24,8.31,5.24,22.32,5.24,32.39v65.5a3.89,3.89,0,0,1-3.9,3.28H759.42a3.83,3.83,0,0,1-3.59-3.28V331.32c0-11.38,1.31-28-12.69-28-4.93,0-9.47,3.31-11.79,8.32-2.85,6.36-3.23,12.69-3.23,19.71v56a3.89,3.89,0,0,1-4,3.77m-270-49.79c0,7.9.2,14.41-3.8,21.5-3.22,5.7-8.35,9.21-14,9.21-7.78,0-12.35-5.93-12.35-14.68,0-17.28,15.49-20.42,30.17-20.42v4.39m20.44,49.41a4.23,4.23,0,0,1-4.79.49c-6.72-5.59-7.95-8.19-11.63-13.52-11.12,11.35-19,14.74-33.42,14.74-17.08,0-30.34-10.52-30.34-31.59,0-16.45,8.89-27.66,21.62-33.13,11-4.85,26.37-5.7,38.12-7v-2.62c0-4.83.37-10.52-2.49-14.69-2.45-3.73-7.19-5.27-11.38-5.27-7.73,0-14.61,4-16.28,12.18-.34,1.83-1.69,3.62-3.54,3.71l-19.65-2.11a3.56,3.56,0,0,1-3-4.26c4.5-23.84,26.07-31,45.32-31,9.87,0,22.76,2.62,30.54,10.09,9.87,9.21,8.92,21.49,8.92,34.87v31.59c0,9.5,3.93,13.66,7.65,18.8,1.28,1.84,1.57,4-.09,5.39l-15.5,13.52,0-.06M188.35,341.39c0,7.9.2,14.41-3.8,21.5-3.22,5.7-8.32,9.21-14,9.21-7.78,0-12.31-5.93-12.31-14.69,0-17.28,15.48-20.42,30.13-20.42v4.39m20.44,49.42a4.21,4.21,0,0,1-4.78.48c-6.73-5.58-7.87-8.19-11.64-13.51-11.12,11.34-19,14.74-33.42,14.74-17,0-30.33-10.52-30.33-31.58,0-16.46,8.92-27.66,21.62-33.13,11-4.85,26.37-5.7,38.12-7.05v-2.62c0-4.82.38-10.52-2.45-14.68-2.49-3.74-7.2-5.27-11.38-5.27-7.72,0-14.62,4-16.37,12.18-.34,1.83-1.68,3.62-3.51,3.71L135,312a3.61,3.61,0,0,1-3-4.26c4.54-23.84,26.07-31,45.33-31,9.87,0,22.76,2.62,30.54,10.08,9.87,9.21,8.92,21.5,8.92,34.88v31.59c0,9.5,3.93,13.66,7.65,18.8,1.31,1.84,1.59,4-.07,5.39l-15.46,13.44-.06-.06" transform="translate(-128.61 -276.6)"/></svg>