<svg xmlns="http://www.w3.org/2000/svg" viewBox="0 0 488.12 280.11"><defs><style>.cls-1{fill:#002f86;}.cls-2{fill:#00a9f3;}.cls-3{fill:#002f87;}.cls-4{fill:#0096e2;}.cls-5{fill:#009de8;}.cls-6{fill:#009ee9;}.cls-7{fill:#009fea;}.cls-8{fill:#68c2ee;}.cls-9{fill:#67caf6;}.cls-10{fill:#ade2f9;}.cls-11{fill:#a7e0f9;}.cls-12{fill:#abdcf4;}.cls-13{fill:#abddf6;}.cls-14{fill:#0093df;}.cls-15{fill:#004398;}.cls-16{fill:#00388f;}.cls-17{fill:#003b92;}.cls-18{fill:#049;}.cls-19{fill:#004196;}.cls-20{fill:#00499d;}.cls-21{fill:#0090dd;}.cls-22{fill:#00459a;}.cls-23{fill:#003189;}.cls-24{fill:#00338a;}.cls-25{fill:#00a8f2;}.cls-26{fill:#00a4ee;}.cls-27{fill:#00489d;}.cls-28{fill:#00a5ef;}.cls-29{fill:#006ebe;}.cls-30{fill:#00358c;}.cls-31{fill:#00368c;}.cls-32{fill:#004a9f;}.cls-33{fill:#00a0eb;}.cls-34{fill:#008edb;}.cls-35{fill:#0053a7;}.cls-36{fill:#004ba0;}.cls-37{fill:#00a1ec;}.cls-38{fill:#0087d5;}.cls-39{fill:#00378d;}.cls-40{fill:#00a2ed;}.cls-41{fill:#0054a7;}.cls-42{fill:#0051a5;}.cls-43{fill:#0058ab;}.cls-44{fill:#00479c;}.cls-45{fill:#004fa3;}.cls-46{fill:#004da1;}.cls-47{fill:#0076c6;}.cls-48{fill:#006dbe;}.cls-49{fill:#0070c0;}.cls-50{fill:#0085d3;}.cls-51{fill:#005caf;}.cls-52{fill:#0056a9;}.cls-53{fill:#008cd9;}.cls-54{fill:#007fce;}.cls-55{fill:#005aad;}.cls-56{fill:#007dcc;}.cls-57{fill:#00a6f0;}.cls-58{fill:#0067b9;}.cls-59{fill:#005daf;}.cls-60{fill:#0074c4;}.cls-61{fill:#0089d7;}.cls-62{fill:#0079c8;}.cls-63{fill:#0060b2;}.cls-64{fill:#0065b7;}.cls-65{fill:#0066b7;}.cls-66{fill:#0072c2;}.cls-67{fill:#006bbc;}.cls-68{fill:#0083d1;}.cls-69{fill:#0081cf;}.cls-70{fill:#008bd8;}.cls-71{fill:#0062b4;}.cls-72{fill:#004ca0;}.cls-73{fill:#005eb0;}.cls-74{fill:#0069ba;}.cls-75{fill:#005eb1;}.cls-76{fill:#008dda;}.cls-77{fill:#007ac9;}.cls-78{fill:#007bca;}.cls-79{fill:#0064b5;}.cls-80{fill:#0164b5;}.cls-81{fill:#0097e3;}.cls-82{fill:#009ae6;}.cls-83{fill:#0099e4;}.cls-84{fill:#003a90;}.cls-85{fill:#003d93;}.cls-86{fill:#003f95;}.cls-87{fill:#00469b;}</style></defs><g id="Layer_2" data-name="Layer 2"><g id="Layer_1-2" data-name="Layer 1"><path class="cls-1" d="M486.78,136.2l1.33,9.61c-4,12.78-20.62,17.75-29.8,6.87-13.65-15.22-26.95-30.64-40.69-45.8-13.76,15.38-27.12,30.75-40.85,46.11A16.83,16.83,0,0,1,353,154.51a16.57,16.57,0,0,1-1.76-23.72c12.44-14.36,25.14-28.5,37.71-42.75,6.56-5.78,6.81-7.57.18-13.5-12.43-14.1-25-28.12-37.34-42.26-8.79-10-4.42-24.94,8.21-28,6.38-1.55,12.17,0,16.64,5,13.81,15.37,27.2,30.93,41.1,46.25,12.76-14.86,26.32-28.6,38.55-43.77,9.54-12.27,27-10.06,31.75,5,.46,5.45-.26,10.78-4,15-14.43,16.62-29.12,32.91-43.63,49.49C455.65,100,474.09,115.9,486.78,136.2Z"/><path class="cls-2" d="M87.89.26c67.71,9.13,40.62,53.22,16.84,40.51A47,47,0,0,0,35,73.16c-7.64,38.18,37.17,68.76,70.07,48.3,19.73-11.11,36,18.09,17.09,29.23-47.67,29.77-115.25-3-121-59C-7.45,42.33,38.61-3.91,87.89.26Z"/><path class="cls-1" d="M294.19,279.5C280,263.63,266.72,248.25,253,232V278.5H242V209.41c2.11-.67,3.6,0,5.15,1.72,13.32,15,26.26,30,39.85,44.77V210.5H298c-.08,22.93,1,46.17-.44,69Z"/><path class="cls-3" d="M99,279.5c-33.3-5.66-22.31-45.38-24-70h11s-.15,29.34.07,43.53c.11,7.17,3.23,12.93,10.29,15.41,11.12,4.89,24.81-3.43,23.88-16.08V210.5h10.89c-1.61,24.6,9.15,65-24.89,69Z"/><path class="cls-1" d="M398.56,279.8c-7.56-2.59-14.57-5.32-19.31-12.52l7.2-5.46c15.71,16.62,38.19,3.95,24.72-8.49-7.93-4.69-17.25-7.54-24.26-13.7-21-24.29,22.13-42.91,36.68-20.16l-7.44,5.65c-9.21-12.78-33.5-3.9-19.7,8.72,7.11,3.87,14.72,6.89,21.54,11.28C437.59,260.22,419.73,282.82,398.56,279.8Z"/><path class="cls-1" d="M456.54,279.8c-7.56-2.63-14.56-5.3-19.36-12.5l7.57-5.74c12,16,38.53,5.85,24.55-8.09-7.55-4.58-16.39-7.35-23.4-12.84-23.48-24.27,20.9-44.54,35.6-21.11l-7.32,5.57c-9-12.34-33.09-4.43-20.18,8.43,7.24,4,15,7.14,22,11.66C495.58,260.09,477.48,283,456.54,279.8Z"/><path class="cls-1" d="M166,279.8c-8.14-2.2-14.23-6.19-20.46-12.07l8.17-6.16c6.34,8.44,24.41,13.32,28.13.56,1.51-15.78-30.34-13.46-32.92-30.51-5.14-23.17,30-30.24,41.69-12.21l-7.5,5.67c-8.9-12.32-33.18-4.43-20.1,8.48,7.33,4.08,15.27,7.16,22.27,11.82C204.24,260.08,186.44,282.89,166,279.8Z"/><path class="cls-4" d="M246.58.5l.81,2.19c-30.2,26.07-56.92,56.85-86,84.44-1.84,1.83-3.18,3.63-2.8,6.32-.17-2.3-.74-4.59-.5-6.9q43.38-42.6,86-86Z"/><path class="cls-5" d="M158.11,86.31c0,.49-.07,1-.1,1.45q0-6.51,0-13C182.74,50.17,208.49,25.9,231.93.26c1.25,0,2.38.68,3.65.69-24.72,25.38-50.09,50.15-75.09,75.26C157.2,78.82,158.18,82.66,158.11,86.31Z"/><path class="cls-6" d="M231.93.5C208.49,26.14,182.74,50.41,158,75,178.28,48.48,207.37,26.05,230.1.5Z"/><path class="cls-7" d="M229.66.26q-35.26,36.1-71.4,71.41c20.45-24.78,46-45.73,67.74-69.58V1.55C227.22,1.15,228.37.26,229.66.26Z"/><path class="cls-8" d="M235.58,1.19,234.33,1a4.75,4.75,0,0,0,0-.53h7.93a2.46,2.46,0,0,0,0,.54C240.13,1.41,237.82,1.08,235.58,1.19Z"/><path class="cls-9" d="M84.84.5,77.46,1c0-.16,0-.33.05-.5Z"/><path class="cls-10" d="M0,78.39v0Z"/><path class="cls-11" d="M77.51.5c0,.17,0,.34-.05.5L75.07.5Z"/><path class="cls-12" d="M242.35,1a2.46,2.46,0,0,1,0-.54h1.83l-.63.71Z"/><path class="cls-13" d="M234.38.5a4.75,4.75,0,0,1,0,.53L232.54.5Z"/><path class="cls-1" d="M50.46,240.72c18.22,8.36,14.73,35.69-5.5,37.19-9.41.67-18.88.48-28.33.6-5.63.07-5.63,0-5.63-5.59V210.56c8.28-.89,16.7-.2,25-.31C52.91,209.68,61.6,229.3,50.46,240.72ZM22,268.81c10.13-1.13,28,4.83,29.51-9.48,1-16.59-19-10.36-29.51-11.33Zm0-30.54c7.91-.38,21.65,2.68,22.49-8.32.83-13.34-13.87-9.61-22.49-10.56Z"/><path class="cls-3" d="M318,278.5v-68h45v9H329v18h25v9H329v22h35v10Z"/><path class="cls-3" d="M209.29,210.5H220v68.22c-3.37-.62-8.46,1.59-10.59-1.5C209.06,255,209.41,232.77,209.29,210.5Z"/><path class="cls-14" d="M158.61,93.21c-.38-2.69,1-4.48,2.8-6.31,29.45-28,56.51-59.21,87.22-85.51l3.68.59c-13.7,11-25.23,25-38.09,37.12-.42.43-.31,1.39-.46,2.1a54.82,54.82,0,0,0-16.54,17.25c-1.5-1.83-2.3-.07-3.09.72-11.78,11.72-23.5,23.48-35.39,35.08Z"/><path class="cls-3" d="M311.91,113.84q-12.93,29-42.14,41.45c12.65-14.92,27.78-28.23,41.56-42.29Z"/><path class="cls-15" d="M318.08,73.47c.17.82.34,1.65.5,2.48-28.7,28.21-57.32,56.69-85.43,85.49l-1.83-.08-.61-.58C259.54,131.44,288.65,102.19,318.08,73.47Z"/><path class="cls-2" d="M164.69,48.46a77.3,77.3,0,0,1,41-40.89C192.35,21.43,178.72,35.31,164.69,48.46Z"/><path class="cls-16" d="M253.42,160.23a21.66,21.66,0,0,1-5.61.53Q282.57,125.65,318,91.18l.2.16-.79,3.53c-21.87,21.3-43.47,43-64.85,64.81Z"/><path class="cls-17" d="M247.81,160.76l1.94.06c-2.46.11-5,.79-7.41.51,25.12-25.66,50.63-51.05,76.21-76.26l.18.13c-.19,2-.39,4.09-.58,6.14l-.2-.16c0-.66-.08-1.31-.19-2.93l-71.13,72.43Z"/><path class="cls-18" d="M318.08,73.47c-29.43,28.72-58.54,58-87.37,87.31l-2.4-.19c29.84-29.93,59.46-60.1,89.75-89.54C318.07,71.86,318.07,72.66,318.08,73.47Z"/><path class="cls-19" d="M242.34,161.33l.79.14-10,0c28.11-28.8,56.73-57.28,85.43-85.49l.15,9.25-.18-.13c0-2.76,0-3.84,0-7.15l-82.17,83.43C237.7,161.36,240.66,161.35,242.34,161.33Z"/><path class="cls-20" d="M225.82,160.73l-6.08-1.21c10-10.65,20.61-20.68,30.82-31.11,2.53-3.86,7.37-4.63,11.27-6.72-11.21,13.45-25.36,25.09-36.82,38.49Z"/><path class="cls-21" d="M213.76,41.2c.15-.71,0-1.67.46-2.1C227.08,27,238.61,13,252.31,2l3.55.66c-10.54,9.63-20.27,20.16-30.5,30.13-.86,1.35-3.7,2.35-2.58,4.11Z"/><path class="cls-21" d="M158.74,94.25c11.89-11.6,23.61-23.36,35.39-35.08.79-.79,1.59-2.55,3.09-.72l-3.08,6.62a288.78,288.78,0,0,0-34.33,34.29Z"/><path class="cls-22" d="M318.06,70.71c-30.29,29.44-59.91,59.6-89.75,89.54l2.4.19.61.58-4.3-.48C255,128.8,287.6,100,317.38,69.5h.6Z"/><path class="cls-23" d="M311.91,113.84l-.58-.84c-13.78,14-28.92,27.37-41.56,42.29l-5.22,1.94c14.58-17.54,33.27-33.95,50.06-50.09Z"/><path class="cls-24" d="M314.61,107.14c-16.78,16.14-35.49,32.55-50.06,50.09l-3.73,1.2c16.39-19.32,36-36.79,54-54.83A6.49,6.49,0,0,1,314.61,107.14Z"/><path class="cls-25" d="M164.69,48.46C181,35.32,193.24,15.67,211.16,5.26q-24,24.66-48.75,48.71Z"/><path class="cls-26" d="M159.72,63.09c.27-1,.55-2,.82-3,18.83-19,38.67-37,56.75-56.68l3.05-.69C200.41,23,180.4,43.59,159.72,63.09Z"/><path class="cls-27" d="M318,69.5h-.6c-.05-.66-.1-1.32-.19-2.39-13.32,12.54-25.43,26.15-39,38.36,1.86-3.36,2.93-7.24,6.25-9.44,11.18-10.09,20.65-22.85,32.85-31.42C317.51,66.24,317.75,67.87,318,69.5Z"/><path class="cls-28" d="M217.29,3.39c-18.08,19.7-37.92,37.71-56.75,56.68l1-3.71c17.88-16.58,35-34.39,52.09-51.8Z"/><path class="cls-29" d="M293,22.22l2.5,2.41c-8,7.8-15.9,15.78-24.17,23.34l-2.17-2A162.4,162.4,0,0,1,293,22.22Z"/><path class="cls-30" d="M315,105.53c0-.5-.09-1-.18-1.93-18.06,18-37.63,35.51-54,54.83l-2.34.61c-1-.87-1-.89.38-2.29q16.69-16.42,33.41-32.84c8.2-7.24,14.91-16.74,24-22.71Z"/><path class="cls-31" d="M316.26,101.2c-9.07,6-15.79,15.47-24,22.71q-16.66,16.46-33.41,32.84c-1.42,1.4-1.39,1.42-.38,2.29l-2.46.61c-2.2-1.44.2-2,.67-2.47,19.81-19.8,39.45-39.77,59.43-59.39l.74,1Z"/><path class="cls-32" d="M317.28,65C304.14,74.12,294.36,88.2,281.9,98.5L283.61,93c11.56-9.82,21.3-21.74,32.72-31.74Z"/><path class="cls-33" d="M226.44,2.09c-21.79,24.34-48.51,45.05-68.32,70.79l.63-4.88C181.91,46.8,202.32,21.93,226.44,2.09Z"/><path class="cls-34" d="M159.81,99.36a288.78,288.78,0,0,1,34.33-34.29l-1.29,4.16c-11,10.6-22,21.35-32.44,32.55Z"/><path class="cls-35" d="M312.44,49.69c.41,1,.81,2,1.21,3.05C303.83,59,296.71,69.36,287.84,77c-2.74,2.19-1.89,5.16-2.79,8.07-.1-3.22-.21-6.45-.32-9.67C294.68,67.79,301.87,56.25,312.44,49.69Z"/><path class="cls-36" d="M252.65,125.86c-10.34,11.77-22.36,22.06-32.91,33.66l-2.45-.61c9-11.53,21.06-20.59,30.48-31.83Z"/><path class="cls-37" d="M226,1.55l.18.39C202,21.81,181.53,46.75,158.31,68l.48-2.45C180.68,45,201.13,22.78,223,2.1Z"/><path class="cls-38" d="M163.57,111.35c-.45-1.2-.9-2.41-1.34-3.61,9.94-9,19.13-18.82,28.78-28.13,0,1.42,0,2.85,0,4.27C181.62,92.79,172.66,102.13,163.57,111.35Z"/><path class="cls-39" d="M316.86,98.81l-.74-1c-20,19.62-39.62,39.59-59.43,59.39-.47.48-2.87,1-.67,2.47l-2.6.58-.91-.55c21.38-21.79,43-43.51,64.85-64.81Z"/><path class="cls-38" d="M266.26,5.7l3,1.24c-10.18,6.34-17.54,17-26.52,25a7.65,7.65,0,0,0-1,2.45c-1.7.06-2.89-.54-4.76-1C247.1,24.47,255.21,12.62,266.26,5.7Z"/><path class="cls-40" d="M223.39,2.1C201.57,22.78,181.12,45,159.23,65.55c.17-.82.33-1.64.49-2.46C180.4,43.59,200.41,23,220.34,2.7Z"/><path class="cls-41" d="M208.65,156.13l-2.35-1c8-9.72,17.56-18.16,26.24-27.32l9.16.11c-2.87,1-5.9-.21-7.91,3C225.65,139.46,216.91,147.64,208.65,156.13Z"/><path class="cls-42" d="M208.65,156.13q9.94-10,19.89-19.91c3.8-2.7,6.07-8.69,11.33-7.77q-14,14.36-28.09,28.7Z"/><path class="cls-43" d="M309.51,43.57,310.69,46,284.41,72.28l-.72-2.79Z"/><path class="cls-43" d="M204.44,154.18l-3.73-1.73c5.4-4.89,22.7-26.51,28.27-25.28l.27,0,.24.13C221.8,136.7,210.66,143.81,204.44,154.18Z"/><path class="cls-44" d="M271,115.62c-14.12,15.43-31.46,28.82-44,45.26a3.59,3.59,0,0,1-2-.7c14.93-15.4,29.28-32.06,45.89-45.45Z"/><path class="cls-45" d="M285.05,85.1l.6-2.44c9.82-9.08,19.07-18.76,28.67-28.07.39,1.21.78,2.43,1.18,3.65-11.6,7.46-19.66,20.13-30.66,28.63Z"/><path class="cls-46" d="M247.77,127.08c-9.42,11.24-21.48,20.3-30.48,31.83l-1.84-.54c.24-.93.19-2.16.78-2.76,9.25-9.32,18.59-18.56,27.9-27.82Z"/><path class="cls-47" d="M284.94,15.55l2.47,1.82c-9,6.9-16.42,16-24.43,24l-2.36-1.46A176.21,176.21,0,0,1,284.94,15.55Z"/><path class="cls-48" d="M181.91,138.69l-2.42-2.43c7.82-8.08,15.74-16,23.92-23.75l2.35,2.48A166.44,166.44,0,0,0,181.91,138.69Z"/><path class="cls-49" d="M203.41,112.51c-8.18,7.71-16.1,15.67-23.92,23.75L177.57,134l23.81-23.88Z"/><path class="cls-42" d="M314.32,54.59c-9.6,9.31-18.85,19-28.67,28.07A6.17,6.17,0,0,1,287.84,77c8.87-7.67,16-18.07,25.81-24.29Z"/><path class="cls-47" d="M174,129.64l-1.26-1.73A178.11,178.11,0,0,1,197,103.42c.44.81.89,1.62,1.33,2.44C190,113.51,182.13,121.75,174,129.64Z"/><path class="cls-50" d="M242.12,34.39a7.42,7.42,0,0,1,1-2.45c9.22-8.24,16.72-19.21,27.3-25.47l.92,1.14L245.48,34.32l1.52.12V35Z"/><path class="cls-51" d="M198.35,151.07l-2.42-1.4c7.48-9,16.45-16.92,25-24.91L224.1,126C214.6,133.16,207.06,142.87,198.35,151.07Z"/><path class="cls-50" d="M163.57,111.35c9.09-9.22,18.05-18.56,27.45-27.47a9.14,9.14,0,0,1,.6,3.05c-9,9-18.29,17.71-26.93,27.06Z"/><path class="cls-45" d="M244.13,127.79c-9.31,9.26-18.65,18.5-27.9,27.82-.59.6-.54,1.83-.78,2.76l-3.67-1.22C220.15,150.62,235.35,128.44,244.13,127.79Z"/><path class="cls-52" d="M284.41,72.28,310.69,46l1.75,3.66c-10.57,6.56-17.76,18.1-27.71,25.74C284.62,74.38,284.52,73.33,284.41,72.28Z"/><path class="cls-53" d="M160.41,101.78c10.41-11.2,21.41-22,32.44-32.55-.36,1.7-.73,3.4-1.09,5.1-11.39,8.2-20.51,20-30.71,29.85Z"/><path class="cls-52" d="M204.44,154.18c6.22-10.37,17.36-17.47,25.05-26.92l3,.55c-8.68,9.16-18.19,17.6-26.24,27.32Z"/><path class="cls-54" d="M168.4,121.26c-.6-1.06-1.19-2.12-1.78-3.18,8.86-8.28,16.77-18.27,26.16-25.65.25,1,.49,2,.74,3-8.77,6.39-15.76,15.45-23.77,22.9C169,119.08,168.83,120.29,168.4,121.26Z"/><path class="cls-55" d="M198.35,151.07c8.71-8.2,16.25-17.91,25.75-25.12l4.88,1.22c-5.64-1.18-22.83,20.37-28.27,25.28Z"/><path class="cls-56" d="M278,11.16l2.22,1.3c-8.74,6.37-15.7,15.42-23.7,22.83-.51.52-.53,1.52-.77,2.29l-3.66-1.22C260.37,27.87,268.46,18.24,278,11.16Z"/><path class="cls-54" d="M278,11.16c-9.5,7.08-17.59,16.71-25.91,25.2l-3-.79c9-8.37,16.62-18.64,26.87-25.55Z"/><path class="cls-57" d="M213.62,4.56C196.5,22,179.41,39.78,161.53,56.36,176,38.1,195.38,22.82,211.16,5.26Z"/><path class="cls-58" d="M186.77,143.08l-1.91-1.66c7.23-8.6,15.91-15.9,23.76-23.94l2.16,1.7Z"/><path class="cls-55" d="M309.51,43.57,283.69,69.49c-.18-.67-.35-1.34-.52-2a9.83,9.83,0,0,1,1.36-2.86c8.08-7.45,15-16.65,23.93-22.94Z"/><path class="cls-59" d="M308.46,41.68c-8.94,6.29-15.85,15.49-23.93,22.94a9.83,9.83,0,0,0-1.36,2.86l-1.25-3.6c8-8.32,16-17.56,25.15-24.58Z"/><path class="cls-56" d="M168.4,121.26c.43-1,.64-2.18,1.35-2.89,8-7.45,15-16.51,23.77-22.9.38,1,.77,2,1.16,3.06A8.92,8.92,0,0,0,192,99.77c-7.34,7.88-16.18,14.69-22.43,23.41Z"/><path class="cls-60" d="M174,129.64c8.17-7.89,16-16.13,24.39-23.78l1.72,2.44c-8.79,6.79-16,16-24.26,23.71Z"/><path class="cls-61" d="M266.26,5.7c-11,6.92-19.16,18.76-29.32,27.71l3.54,1c-2.36,0-4.35.33-6.52-1,9.14-9.15,18.13-18.2,27.22-27.14.74-.74,2.17-.78,3.28-1.14Z"/><path class="cls-62" d="M284.94,15.55a176.21,176.21,0,0,0-24.32,24.38l-2.45-1.19c6.21-8.57,15.08-15.37,22.34-23.21a8.69,8.69,0,0,1,2.59-1.2Z"/><path class="cls-63" d="M194.1,148.52l-1.84-1.28a175.23,175.23,0,0,1,24.53-24.34l2.51,1.18C210,130.84,202.67,140.66,194.1,148.52Z"/><path class="cls-63" d="M304.68,35.63l1.19,1.84c-9.21,6.87-16.63,16-25.11,23.83L280,59.72c6.12-8.72,15.1-15.45,22.35-23.33C302.9,35.88,303.9,35.87,304.68,35.63Z"/><path class="cls-64" d="M186.77,143.08l24-23.9,2.88,1.92c-9.18,6.15-17.39,15.4-24.47,23.89Z"/><path class="cls-60" d="M263,41.39c8-8.07,15.41-17.12,24.43-24l2.1,1.73a153.56,153.56,0,0,0-24,23.93Z"/><path class="cls-61" d="M191,79.61c-9.5,9.17-18.56,18.84-28.34,27.72l-.93-.86C170,95.64,181.3,87.2,190.12,76.73L191,77Z"/><path class="cls-65" d="M300.52,30.09,302.06,32c-8.87,6.7-16.08,16.12-24.35,23.78L276.47,54A150.5,150.5,0,0,1,300.52,30.09Z"/><path class="cls-66" d="M175.81,132c8.23-7.66,15.47-16.92,24.26-23.71l1.31,1.83L177.57,134Z"/><path class="cls-67" d="M271.35,48c8.27-7.56,16.14-15.54,24.17-23.34l1.77,1.86L273.46,50.25Z"/><path class="cls-66" d="M265.49,43a153.56,153.56,0,0,1,24-23.93l1.57,1.33Q278.9,32.1,267.29,44.35Z"/><path class="cls-34" d="M222.78,36.88c-1.13-1.74,1.73-2.77,2.58-4.11,10.23-10,20-20.5,30.5-30.13l2.52.58c-11.47,8.93-20.95,20.55-31.53,30.61-.29.29-2.65.93-.29,1.88Z"/><path class="cls-68" d="M164.69,114c8.64-9.35,17.9-18.09,26.93-27.06.19,1,.37,2,.56,3-9,6.94-16.42,16.15-24.76,24a10,10,0,0,0-1.4,2.84Z"/><path class="cls-67" d="M181.91,138.69A166.44,166.44,0,0,1,205.76,115l2,1.76c-9.05,6.6-16.27,15.59-24.57,23.15Z"/><path class="cls-68" d="M246.58,34.44l-1.52-.12L271,7.61l2.32,1.2C263.7,16.52,255.58,26,246.58,34.44Z"/><path class="cls-69" d="M246.88,34.56c9.05-8.44,17.19-18,26.81-25.75L276.31,10c-10.25,6.91-17.81,17.18-26.87,25.55L247,35Z"/><path class="cls-70" d="M191,79.61V77l-.88-.31C181.3,87.2,170,95.64,161.73,106.47c-.23-.76-.46-1.52-.7-2.29,10.2-9.82,19.33-21.65,30.71-29.85-.06,3.79-.12,7.59-.19,11.38C190.75,83.76,191.05,81.67,191,79.61Z"/><path class="cls-71" d="M216.79,122.9a175.23,175.23,0,0,0-24.53,24.34L190.43,146c5.45-8.46,14.55-14.7,21.45-22.18.92-.87,2.5-1.07,3.77-1.58Z"/><path class="cls-69" d="M166,116.82a10,10,0,0,1,1.4-2.84c8.33-7.85,15.72-17.06,24.76-24l.6,2.45c-9.39,7.38-17.3,17.37-26.16,25.65Z"/><path class="cls-72" d="M316.33,61.23c-11.42,10-21.16,21.92-32.72,31.74.27-1,.54-2,.8-3,10-9.19,19.26-19.18,29-28.65C314,60.27,315.67,59,316.33,61.23Z"/><path class="cls-70" d="M264.46,5.08c-1.11.36-2.54.4-3.28,1.14-9.09,8.94-18.08,18-27.22,27.14l2.25,1a18.55,18.55,0,0,1-5.57-.23c10.46-10.33,20-19.87,30-30.23Z"/><path class="cls-46" d="M316.14,60.68c-1.36-1.72-2-.06-2.73.65-9.74,9.47-19,19.46-29,28.65l.43-3.11c11-8.5,19.06-21.17,30.66-28.63C315.71,59.05,315.92,59.87,316.14,60.68Z"/><path class="cls-62" d="M197,103.42a178.11,178.11,0,0,0-24.32,24.49l-1.8-2.53c8.76-7.46,15.81-17,25-23.81Z"/><path class="cls-73" d="M280.76,61.3c8.48-7.79,15.9-17,25.11-23.83l1.2,1.83c-9.14,7-17.11,16.26-25.15,24.58Z"/><path class="cls-71" d="M304.68,35.63c-.78.24-1.78.25-2.3.76C295.13,44.27,286.15,51,280,59.72l-1.16-1.95c7.06-9.05,16-16.4,24-24.6Z"/><path class="cls-53" d="M260.63,3.9c-10,10.36-19.53,19.9-30,30.23l2.66.38c-1.59.43-8,1.16-4.05-1.26C239,23.21,249.69,14,258.79,3.33Z"/><path class="cls-58" d="M300.52,30.09a150.91,150.91,0,0,0-24,24l-1.26-1.76A161.56,161.56,0,0,1,299,28.36Z"/><path class="cls-49" d="M267.29,44.35q11.63-12.23,23.79-23.92L293,22.22A162.4,162.4,0,0,0,269.18,46Z"/><path class="cls-74" d="M299,28.36a161.56,161.56,0,0,0-23.79,23.92l-1.75-2,23.83-23.76Z"/><path class="cls-75" d="M194.1,148.52c8.57-7.86,15.89-17.68,25.2-24.44l1.67.68c-8.59,8-17.57,15.94-25,24.91Z"/><path class="cls-76" d="M258.79,3.33C249.69,14,239,23.21,229.25,33.25c-.32.31-2.59,1-.21,1.88l-2.48.58c-2.36-1,0-1.59.29-1.88C237.57,24.09,247.05,11.1,258.79,3.33Z"/><path class="cls-77" d="M196,101.57c-9.24,6.81-16.29,16.35-25,23.81l-.66-1.12a212,212,0,0,1,25-24.51Z"/><path class="cls-78" d="M195.24,99.75a212,212,0,0,0-25,24.51l-.67-1.08c6.25-8.72,15.09-15.53,22.43-23.41a8.92,8.92,0,0,1,2.68-1.24Z"/><path class="cls-78" d="M255.71,37.58c.24-.77.26-1.77.77-2.28,8-7.42,15-16.47,23.7-22.84l.68.39c-7.7,8.77-16.41,16.66-24.51,25.09Z"/><path class="cls-79" d="M302.86,33.17c-8,8.2-16.93,15.55-24,24.6-.38-.66-.77-1.31-1.16-2C286,48.14,293.19,38.72,302.06,32Z"/><path class="cls-74" d="M183.15,139.9c8.3-7.56,15.52-16.55,24.57-23.15l.9.73c-7.85,8-16.53,15.34-23.76,23.94Z"/><path class="cls-80" d="M215.65,122.24c-1.27.51-2.85.71-3.76,1.58-6.91,7.48-16,13.72-21.46,22.18l-1.24-1c7.08-8.49,15.28-17.74,24.47-23.89Z"/><path class="cls-77" d="M256.35,37.94c8.1-8.43,16.81-16.32,24.51-25.09l2.24,1.48a8.69,8.69,0,0,0-2.59,1.2c-7.26,7.84-16.13,14.64-22.34,23.21Z"/><path class="cls-81" d="M242.35.81l1.16.16c-28.25,28.62-56.67,57.2-85.4,85.34,0-.61,0-1.22,0-1.83C186.22,57,214.05,29,241.68,1Z"/><path class="cls-82" d="M235.58.5h3.68c-26.4,27.32-54.07,54.23-81.17,81.1-.42-2.45.69-4.13,2.4-5.83C185.49,50.65,210.86,25.88,235.58.5Z"/><path class="cls-83" d="M158.09,82.05c27.1-26.87,54.77-53.79,81.17-81.1h2.42c-27.63,28-55.46,56-83.58,83.52C158.1,83.67,158.09,82.86,158.09,82.05Z"/><path class="cls-84" d="M247.81,160.76l-1.18-.08,71.13-72.43c.11,1.62.15,2.27.19,2.93Q282.49,125.56,247.81,160.76Z"/><path class="cls-85" d="M242.34,161.33l-3.06,0c25.56-27.17,52.11-53.67,79.26-79.27,0,1,0,2,0,3C293,110.28,267.46,135.67,242.34,161.33Z"/><path class="cls-86" d="M319,82.23c-27.15,25.59-53.7,52.09-79.26,79.27h-2.9L319,78.06Z"/><path class="cls-87" d="M270.9,114.73c14.17-16.89,30.84-31.47,46.29-47.28.09,1.07.14,1.73.19,2.39-15.86,14.82-30.52,31-46.38,45.78Z"/></g></g></svg>